<?xml version="1.0" encoding="UTF-8" standalone="no"?>
<svg
   xmlns:dc="http://purl.org/dc/elements/1.1/"
   xmlns:cc="http://creativecommons.org/ns#"
   xmlns:rdf="http://www.w3.org/1999/02/22-rdf-syntax-ns#"
   xmlns:svg="http://www.w3.org/2000/svg"
   xmlns="http://www.w3.org/2000/svg"
   xmlns:sodipodi="http://sodipodi.sourceforge.net/DTD/sodipodi-0.dtd"
   xmlns:inkscape="http://www.inkscape.org/namespaces/inkscape"
   inkscape:version="1.0 (4035a4fb49, 2020-05-01)"
   sodipodi:docname="box_fill.svg"
   id="svg4"
   version="1.1"
   fill="none"
   viewBox="0 0 24 24"
   height="24"
   width="24">
  <metadata
     id="metadata10">
    <rdf:RDF>
      <cc:Work
         rdf:about="">
        <dc:format>image/svg+xml</dc:format>
        <dc:type
           rdf:resource="http://purl.org/dc/dcmitype/StillImage" />
      </cc:Work>
    </rdf:RDF>
  </metadata>
  <defs
     id="defs8" />
  <sodipodi:namedview
     inkscape:current-layer="svg4"
     inkscape:window-maximized="0"
     inkscape:window-y="0"
     inkscape:window-x="0"
     inkscape:cy="12"
     inkscape:cx="12"
     inkscape:zoom="35.416667"
     showgrid="false"
     id="namedview6"
     inkscape:window-height="480"
     inkscape:window-width="687"
     inkscape:pageshadow="2"
     inkscape:pageopacity="0"
     guidetolerance="10"
     gridtolerance="10"
     objecttolerance="10"
     borderopacity="1"
     bordercolor="#666666"
     pagecolor="#ffffff" />
  <g
     style="opacity:1"
     id="g12">
    <path
       id="path14"
       d="m 21,15.9999 v -8 C 20.9996,7.64918 20.9071,7.30471 20.7315,7.00106 20.556,6.69742 20.3037,6.44526 20,6.2699 l -7,-4 C 12.696,2.09437 12.3511,2.00195 12,2.00195 c -0.3511,0 -0.696,0.09242 -1,0.26795 l -7,4 C 3.69626,6.44526 3.44398,6.69742 3.26846,7.00106 3.09294,7.30471 3.00036,7.64918 3,7.9999 v 8 c 3.6e-4,0.3507 0.09294,0.6952 0.26846,0.9988 0.17552,0.3037 0.4278,0.5558 0.73154,0.7312 l 7,4 c 0.304,0.1755 0.6489,0.268 1,0.268 0.3511,0 0.696,-0.0925 1,-0.268 l 7,-4 c 0.3037,-0.1754 0.556,-0.4275 0.7315,-0.7312 0.1756,-0.3036 0.2681,-0.6481 0.2685,-0.9988 z"
       style="color:#000000;font-style:normal;font-variant:normal;font-weight:normal;font-stretch:normal;font-size:medium;line-height:normal;font-family:sans-serif;font-variant-ligatures:normal;font-variant-position:normal;font-variant-caps:normal;font-variant-numeric:normal;font-variant-alternates:normal;font-variant-east-asian:normal;font-feature-settings:normal;font-variation-settings:normal;text-indent:0;text-align:start;text-decoration:none;text-decoration-line:none;text-decoration-style:solid;text-decoration-color:#000000;letter-spacing:normal;word-spacing:normal;text-transform:none;writing-mode:lr-tb;direction:ltr;text-orientation:mixed;dominant-baseline:auto;baseline-shift:baseline;text-anchor:start;white-space:normal;shape-padding:0;shape-margin:0;inline-size:0;clip-rule:nonzero;display:inline;overflow:visible;visibility:visible;isolation:auto;mix-blend-mode:normal;color-interpolation:sRGB;color-interpolation-filters:linearRGB;solid-color:#000000;solid-opacity:1;vector-effect:none;fill:#e9c9a0;fill-opacity:1;fill-rule:nonzero;stroke-width:1;stroke-linecap:butt;stroke-linejoin:miter;stroke-miterlimit:4;stroke-dasharray:none;stroke-dashoffset:0;stroke-opacity:1.0;color-rendering:auto;image-rendering:auto;shape-rendering:auto;text-rendering:auto;enable-background:accumulate;stop-color:#000000;stop-opacity:1;stroke:none;" />
    <path
       id="path16"
       d="M 12 1.5019531 C 11.561157 1.5019531 11.130004 1.6165226 10.75 1.8359375 L 3.75 5.8359375 C 3.3703383 6.0551298 3.0553213 6.370478 2.8359375 6.75 C 2.6165484 7.1295436 2.50045 7.5616258 2.5 8 L 2.5 16 C 2.50045 16.438359 2.6165187 16.868514 2.8359375 17.248047 C 3.0553366 17.62767 3.3704177 17.942913 3.75 18.162109 L 3.75 18.164062 L 10.75 22.162109 C 11.129933 22.381446 11.561081 22.498047 12 22.498047 C 12.438919 22.498047 12.870067 22.381446 13.25 22.162109 L 20.25 18.164062 L 20.25 18.162109 C 20.629117 17.943153 20.944699 17.629113 21.164062 17.25 L 21.164062 17.248047 C 21.383014 16.868824 21.499501 16.437607 21.5 16 L 21.5 8 C 21.4995 7.5617392 21.383607 7.1296392 21.164062 6.75 C 20.944685 6.3704454 20.629602 6.0551244 20.25 5.8359375 L 13.25 1.8359375 C 12.869996 1.6165226 12.438843 1.5019531 12 1.5019531 z M 12 2.5019531 C 12.263357 2.5019531 12.522004 2.5714799 12.75 2.703125 L 19.751953 6.703125 C 19.979208 6.8346285 20.16744 7.0246329 20.298828 7.2519531 C 20.430484 7.4796139 20.4997 7.7368208 20.5 8 L 20.5 16 C 20.4997 16.263154 20.430454 16.520475 20.298828 16.748047 C 20.167689 16.97498 19.978745 17.163374 19.751953 17.294922 L 12.75 21.296875 C 12.521933 21.428539 12.263281 21.498047 12 21.498047 C 11.736719 21.498047 11.478067 21.428539 11.25 21.296875 L 4.25 17.296875 L 4.2480469 17.294922 C 4.0212353 17.16338 3.8323443 16.975013 3.7011719 16.748047 C 3.5695506 16.520379 3.50027 16.263041 3.5 16 L 3.5 8 C 3.50027 7.7369342 3.569521 7.4797095 3.7011719 7.2519531 C 3.8325938 7.0246004 4.0207713 6.8346231 4.2480469 6.703125 L 11.25 2.703125 C 11.477996 2.5714799 11.736643 2.5019531 12 2.5019531 z "
       style="color:#000000;font-style:normal;font-variant:normal;font-weight:normal;font-stretch:normal;font-size:medium;line-height:normal;font-family:sans-serif;font-variant-ligatures:normal;font-variant-position:normal;font-variant-caps:normal;font-variant-numeric:normal;font-variant-alternates:normal;font-variant-east-asian:normal;font-feature-settings:normal;font-variation-settings:normal;text-indent:0;text-align:start;text-decoration:none;text-decoration-line:none;text-decoration-style:solid;text-decoration-color:#000000;letter-spacing:normal;word-spacing:normal;text-transform:none;writing-mode:lr-tb;direction:ltr;text-orientation:mixed;dominant-baseline:auto;baseline-shift:baseline;text-anchor:start;white-space:normal;shape-padding:0;shape-margin:0;inline-size:0;clip-rule:nonzero;display:inline;overflow:visible;visibility:visible;isolation:auto;mix-blend-mode:normal;color-interpolation:sRGB;color-interpolation-filters:linearRGB;solid-color:#000000;solid-opacity:1;vector-effect:none;fill-opacity:1;fill-rule:nonzero;stroke-width:1;stroke-linecap:butt;stroke-linejoin:miter;stroke-miterlimit:4;stroke-dasharray:none;stroke-dashoffset:0;stroke-opacity:1.0;color-rendering:auto;image-rendering:auto;shape-rendering:auto;text-rendering:auto;enable-background:accumulate;stop-color:#000000;stop-opacity:1;stroke:none;" />
  </g>
</svg>
