<?xml version="1.0" encoding="UTF-8" standalone="no"?>
<svg
   xmlns:dc="http://purl.org/dc/elements/1.1/"
   xmlns:cc="http://creativecommons.org/ns#"
   xmlns:rdf="http://www.w3.org/1999/02/22-rdf-syntax-ns#"
   xmlns:svg="http://www.w3.org/2000/svg"
   xmlns="http://www.w3.org/2000/svg"
   xmlns:sodipodi="http://sodipodi.sourceforge.net/DTD/sodipodi-0.dtd"
   xmlns:inkscape="http://www.inkscape.org/namespaces/inkscape"
   inkscape:version="1.0 (4035a4fb49, 2020-05-01)"
   sodipodi:docname="check_circle.svg"
   id="svg6"
   version="1.1"
   fill="none"
   viewBox="0 0 22 22"
   height="22"
   width="22">
  <metadata
     id="metadata12">
    <rdf:RDF>
      <cc:Work
         rdf:about="">
        <dc:format>image/svg+xml</dc:format>
        <dc:type
           rdf:resource="http://purl.org/dc/dcmitype/StillImage" />
      </cc:Work>
    </rdf:RDF>
  </metadata>
  <defs
     id="defs10" />
  <sodipodi:namedview
     inkscape:current-layer="svg6"
     inkscape:window-maximized="0"
     inkscape:window-y="0"
     inkscape:window-x="0"
     inkscape:cy="11"
     inkscape:cx="11"
     inkscape:zoom="38.636364"
     showgrid="false"
     id="namedview8"
     inkscape:window-height="480"
     inkscape:window-width="687"
     inkscape:pageshadow="2"
     inkscape:pageopacity="0"
     guidetolerance="10"
     gridtolerance="10"
     objecttolerance="10"
     borderopacity="1"
     bordercolor="#666666"
     pagecolor="#ffffff" />
  <path
     id="path20"
     d="M 12 0.87695312 C 10.923 0.770545 9.8289126 0.83655662 8.7597656 1.078125 C 6.6214422 1.5612473 4.6958128 2.7221995 3.2714844 4.3886719 C 1.8471475 6.0551411 0.99971816 8.1386645 0.85546875 10.326172 C 0.7112291 12.513611 1.2775272 14.688268 2.4707031 16.527344 C 3.6638744 18.36643 5.4201725 19.771563 7.4765625 20.53125 C 9.5329356 21.290927 11.780569 21.365631 13.882812 20.744141 C 15.98506 20.122538 17.829955 18.837815 19.142578 17.082031 C 20.455099 15.326236 21.164685 13.192277 21.166016 11 L 21.166016 10.15625 A 1 1 0 0 0 20.166016 9.15625 A 1 1 0 0 0 19.166016 10.15625 L 19.166016 11 C 19.164946 12.761323 18.595494 14.474161 17.541016 15.884766 C 16.486439 17.295382 15.005359 18.326774 13.316406 18.826172 C 11.62745 19.325481 9.8220088 19.266573 8.1699219 18.65625 C 6.5178719 18.045937 5.1070263 16.916967 4.1484375 15.439453 C 3.1898335 13.961929 2.7356822 12.214392 2.8515625 10.457031 C 2.9674531 8.6995786 3.6467125 7.0282839 4.7910156 5.6894531 C 5.9353072 4.3506255 7.4832553 3.4174345 9.2011719 3.0292969 C 10.919038 2.6411536 12.715465 2.8183361 14.324219 3.5351562 A 1 1 0 0 0 15.644531 3.0292969 A 1 1 0 0 0 15.138672 1.7089844 C 14.137449 1.2628644 13.077 0.98336125 12 0.87695312 z "
     style="color:#000000;font-style:normal;font-variant:normal;font-weight:normal;font-stretch:normal;font-size:medium;line-height:normal;font-family:sans-serif;font-variant-ligatures:normal;font-variant-position:normal;font-variant-caps:normal;font-variant-numeric:normal;font-variant-alternates:normal;font-variant-east-asian:normal;font-feature-settings:normal;font-variation-settings:normal;text-indent:0;text-align:start;text-decoration:none;text-decoration-line:none;text-decoration-style:solid;text-decoration-color:#000000;letter-spacing:normal;word-spacing:normal;text-transform:none;writing-mode:lr-tb;direction:ltr;text-orientation:mixed;dominant-baseline:auto;baseline-shift:baseline;text-anchor:start;white-space:normal;shape-padding:0;shape-margin:0;inline-size:0;clip-rule:nonzero;display:inline;overflow:visible;visibility:visible;isolation:auto;mix-blend-mode:normal;color-interpolation:sRGB;color-interpolation-filters:linearRGB;solid-color:#000000;solid-opacity:1;vector-effect:none;fill:#333333;fill-opacity:1;fill-rule:nonzero;stroke:none;stroke-width:2;stroke-linecap:round;stroke-linejoin:round;stroke-miterlimit:4;stroke-dasharray:none;stroke-dashoffset:0;stroke-opacity:1;color-rendering:auto;image-rendering:auto;shape-rendering:auto;text-rendering:auto;enable-background:accumulate;stop-color:#000000;stop-opacity:1;opacity:1" />
  <path
     id="path16"
     d="M 20.111328 2.6679688 A 1 1 0 0 0 19.458984 2.9589844 L 11 11.427734 L 8.9570312 9.3847656 A 1 1 0 0 0 7.5429688 9.3847656 A 1 1 0 0 0 7.5429688 10.798828 L 10.292969 13.548828 A 1.0001 1.0001 0 0 0 11.707031 13.548828 L 20.875 4.3730469 A 1 1 0 0 0 20.873047 2.9589844 A 1 1 0 0 0 20.111328 2.6679688 z "
     style="color:#000000;font-style:normal;font-variant:normal;font-weight:normal;font-stretch:normal;font-size:medium;line-height:normal;font-family:sans-serif;font-variant-ligatures:normal;font-variant-position:normal;font-variant-caps:normal;font-variant-numeric:normal;font-variant-alternates:normal;font-variant-east-asian:normal;font-feature-settings:normal;font-variation-settings:normal;text-indent:0;text-align:start;text-decoration:none;text-decoration-line:none;text-decoration-style:solid;text-decoration-color:#000000;letter-spacing:normal;word-spacing:normal;text-transform:none;writing-mode:lr-tb;direction:ltr;text-orientation:mixed;dominant-baseline:auto;baseline-shift:baseline;text-anchor:start;white-space:normal;shape-padding:0;shape-margin:0;inline-size:0;clip-rule:nonzero;display:inline;overflow:visible;visibility:visible;isolation:auto;mix-blend-mode:normal;color-interpolation:sRGB;color-interpolation-filters:linearRGB;solid-color:#000000;solid-opacity:1;vector-effect:none;fill:#333333;fill-opacity:1;fill-rule:nonzero;stroke:none;stroke-width:2;stroke-linecap:round;stroke-linejoin:round;stroke-miterlimit:4;stroke-dasharray:none;stroke-dashoffset:0;stroke-opacity:1;color-rendering:auto;image-rendering:auto;shape-rendering:auto;text-rendering:auto;enable-background:accumulate;stop-color:#000000;stop-opacity:1;opacity:1" />
</svg>
