<?xml version="1.0" encoding="UTF-8" standalone="no"?>
<svg
   xmlns:dc="http://purl.org/dc/elements/1.1/"
   xmlns:cc="http://creativecommons.org/ns#"
   xmlns:rdf="http://www.w3.org/1999/02/22-rdf-syntax-ns#"
   xmlns:svg="http://www.w3.org/2000/svg"
   xmlns="http://www.w3.org/2000/svg"
   xmlns:sodipodi="http://sodipodi.sourceforge.net/DTD/sodipodi-0.dtd"
   xmlns:inkscape="http://www.inkscape.org/namespaces/inkscape"
   inkscape:version="1.0 (4035a4fb49, 2020-05-01)"
   sodipodi:docname="check_circle-big.svg"
   id="svg6"
   version="1.1"
   fill="none"
   viewBox="0 0 100 100"
   height="100"
   width="100">
  <metadata
     id="metadata12">
    <rdf:RDF>
      <cc:Work
         rdf:about="">
        <dc:format>image/svg+xml</dc:format>
        <dc:type
           rdf:resource="http://purl.org/dc/dcmitype/StillImage" />
      </cc:Work>
    </rdf:RDF>
  </metadata>
  <defs
     id="defs10" />
  <sodipodi:namedview
     inkscape:current-layer="svg6"
     inkscape:window-maximized="0"
     inkscape:window-y="0"
     inkscape:window-x="0"
     inkscape:cy="50"
     inkscape:cx="50"
     inkscape:zoom="8.5"
     showgrid="false"
     id="namedview8"
     inkscape:window-height="480"
     inkscape:window-width="687"
     inkscape:pageshadow="2"
     inkscape:pageopacity="0"
     guidetolerance="10"
     gridtolerance="10"
     objecttolerance="10"
     borderopacity="1"
     bordercolor="#666666"
     pagecolor="#ffffff" />
  <path
     id="path20"
     d="M 47.384766 7.390625 C 45.11113 7.5302806 42.841257 7.8524618 40.597656 8.359375 C 31.623259 10.387057 23.544224 15.259886 17.566406 22.253906 C 11.588594 29.248022 8.0311505 37.987335 7.4257812 47.167969 C 6.820412 56.348602 9.1993333 65.480827 14.207031 73.199219 C 19.214725 80.917605 26.584394 86.809564 35.214844 89.998047 C 43.845191 93.18653 53.274593 93.501282 62.097656 90.892578 C 70.920614 88.283875 78.664897 82.892538 84.173828 75.523438 C 89.682659 68.154437 92.660691 59.2006 92.666016 50 L 92.666016 46.166016 A 1 1 0 0 0 91.666016 45.166016 A 1 1 0 0 0 90.666016 46.166016 L 90.666016 50 C 90.66094 58.7696 87.823035 67.302373 82.572266 74.326172 C 77.321397 81.350071 69.940893 86.488112 61.53125 88.974609 C 53.121513 91.461105 44.132303 91.162164 35.90625 88.123047 C 27.6801 85.08393 20.657871 79.466189 15.884766 72.109375 C 11.111664 64.752567 8.8448642 56.051348 9.421875 47.300781 C 9.9988857 38.550215 13.38815 30.221172 19.085938 23.554688 C 24.78372 16.888308 32.483106 12.241292 41.037109 10.308594 C 49.591105 8.3759267 58.540428 9.2608874 66.550781 12.830078 A 1 1 0 0 0 67.871094 12.324219 A 1 1 0 0 0 67.365234 11.003906 C 61.0622 8.1954493 54.205672 6.9716583 47.384766 7.390625 z "
     style="color:#000000;font-style:normal;font-variant:normal;font-weight:normal;font-stretch:normal;font-size:medium;line-height:normal;font-family:sans-serif;font-variant-ligatures:normal;font-variant-position:normal;font-variant-caps:normal;font-variant-numeric:normal;font-variant-alternates:normal;font-variant-east-asian:normal;font-feature-settings:normal;font-variation-settings:normal;text-indent:0;text-align:start;text-decoration:none;text-decoration-line:none;text-decoration-style:solid;text-decoration-color:#000000;letter-spacing:normal;word-spacing:normal;text-transform:none;writing-mode:lr-tb;direction:ltr;text-orientation:mixed;dominant-baseline:auto;baseline-shift:baseline;text-anchor:start;white-space:normal;shape-padding:0;shape-margin:0;inline-size:0;clip-rule:nonzero;display:inline;overflow:visible;visibility:visible;isolation:auto;mix-blend-mode:normal;color-interpolation:sRGB;color-interpolation-filters:linearRGB;solid-color:#000000;solid-opacity:1;vector-effect:none;fill:#e9c9a0;fill-opacity:1;fill-rule:nonzero;stroke:none;stroke-width:2;stroke-linecap:round;stroke-linejoin:round;stroke-miterlimit:4;stroke-dasharray:none;stroke-dashoffset:0;stroke-opacity:1;color-rendering:auto;image-rendering:auto;shape-rendering:auto;text-rendering:auto;enable-background:accumulate;stop-color:#000000;stop-opacity:1;opacity:1" />
  <path
     id="path16"
     d="M 91.611328 15.667969 A 1 1 0 0 0 90.958984 15.958984 L 50 56.960938 L 38.207031 45.167969 A 1 1 0 0 0 36.792969 45.167969 A 1 1 0 0 0 36.792969 46.582031 L 49.292969 59.082031 A 1.0001 1.0001 0 0 0 50.707031 59.082031 L 92.375 17.373047 A 1 1 0 0 0 92.373047 15.958984 A 1 1 0 0 0 91.611328 15.667969 z "
     style="color:#000000;font-style:normal;font-variant:normal;font-weight:normal;font-stretch:normal;font-size:medium;line-height:normal;font-family:sans-serif;font-variant-ligatures:normal;font-variant-position:normal;font-variant-caps:normal;font-variant-numeric:normal;font-variant-alternates:normal;font-variant-east-asian:normal;font-feature-settings:normal;font-variation-settings:normal;text-indent:0;text-align:start;text-decoration:none;text-decoration-line:none;text-decoration-style:solid;text-decoration-color:#000000;letter-spacing:normal;word-spacing:normal;text-transform:none;writing-mode:lr-tb;direction:ltr;text-orientation:mixed;dominant-baseline:auto;baseline-shift:baseline;text-anchor:start;white-space:normal;shape-padding:0;shape-margin:0;inline-size:0;clip-rule:nonzero;display:inline;overflow:visible;visibility:visible;isolation:auto;mix-blend-mode:normal;color-interpolation:sRGB;color-interpolation-filters:linearRGB;solid-color:#000000;solid-opacity:1;vector-effect:none;fill:#e9c9a0;fill-opacity:1;fill-rule:nonzero;stroke:none;stroke-width:2;stroke-linecap:round;stroke-linejoin:round;stroke-miterlimit:4;stroke-dasharray:none;stroke-dashoffset:0;stroke-opacity:1;color-rendering:auto;image-rendering:auto;shape-rendering:auto;text-rendering:auto;enable-background:accumulate;stop-color:#000000;stop-opacity:1;opacity:1" />
</svg>
