<?xml version="1.0" encoding="UTF-8" standalone="no"?>
<svg
   xmlns:dc="http://purl.org/dc/elements/1.1/"
   xmlns:cc="http://creativecommons.org/ns#"
   xmlns:rdf="http://www.w3.org/1999/02/22-rdf-syntax-ns#"
   xmlns:svg="http://www.w3.org/2000/svg"
   xmlns="http://www.w3.org/2000/svg"
   xmlns:sodipodi="http://sodipodi.sourceforge.net/DTD/sodipodi-0.dtd"
   xmlns:inkscape="http://www.inkscape.org/namespaces/inkscape"
   inkscape:version="1.0 (4035a4fb49, 2020-05-01)"
   sodipodi:docname="eye_off.svg"
   id="svg6"
   version="1.1"
   fill="none"
   viewBox="0 0 20 20"
   height="20"
   width="20">
  <metadata
     id="metadata12">
    <rdf:RDF>
      <cc:Work
         rdf:about="">
        <dc:format>image/svg+xml</dc:format>
        <dc:type
           rdf:resource="http://purl.org/dc/dcmitype/StillImage" />
      </cc:Work>
    </rdf:RDF>
  </metadata>
  <defs
     id="defs10" />
  <sodipodi:namedview
     inkscape:current-layer="svg6"
     inkscape:window-maximized="0"
     inkscape:window-y="0"
     inkscape:window-x="0"
     inkscape:cy="10"
     inkscape:cx="10"
     inkscape:zoom="42.5"
     showgrid="false"
     id="namedview8"
     inkscape:window-height="480"
     inkscape:window-width="687"
     inkscape:pageshadow="2"
     inkscape:pageopacity="0"
     guidetolerance="10"
     gridtolerance="10"
     objecttolerance="10"
     borderopacity="1"
     bordercolor="#666666"
     pagecolor="#ffffff" />
  <path
     id="path20"
     d="M 10 2.8339844 C 9.3727868 2.8326659 8.7474294 2.9039312 8.1367188 3.046875 A 0.50005 0.50005 0 0 0 7.8964844 3.8867188 L 17.013672 13.011719 A 0.50005 0.50005 0 0 0 17.75 12.980469 C 18.463322 12.132825 19.085212 11.213329 19.607422 10.236328 A 0.50005 0.50005 0 0 0 19.613281 9.7773438 C 19.613281 9.7773438 16.214934 2.8354993 10.001953 2.8339844 L 10 2.8339844 z M 9.9980469 3.8339844 A 0.50005 0.50005 0 0 0 10 3.8339844 C 15.267642 3.8339844 18.349827 9.6017018 18.5625 10.005859 C 18.19336 10.664975 17.759397 11.283413 17.294922 11.878906 L 9.3320312 3.9101562 C 9.5549562 3.8895199 9.7738069 3.8334591 9.9980469 3.8339844 z M 5.0273438 4.5507812 A 0.50005 0.50005 0 0 0 4.7460938 4.6523438 C 2.947048 6.0261168 1.4628602 7.7691096 0.39257812 9.7636719 A 0.50005 0.50005 0 0 0 0.38671875 10.222656 C 0.38671875 10.222656 3.7857155 17.166016 10 17.166016 A 0.50005 0.50005 0 0 0 10.007812 17.166016 C 11.90538 17.134971 13.744587 16.498108 15.253906 15.347656 A 0.50005 0.50005 0 0 0 15.302734 14.595703 L 12.117188 11.410156 A 0.5 0.5 0 0 0 12.107422 11.400391 L 8.6074219 7.9023438 A 0.5 0.5 0 0 0 8.5996094 7.8925781 A 0.5 0.5 0 0 0 8.5566406 7.8515625 L 5.4042969 4.6972656 A 0.50005 0.50005 0 0 0 5.0273438 4.5507812 z M 5.0390625 5.7460938 L 7.5878906 8.2949219 C 7.452688 8.4748122 7.2893081 8.6352267 7.1972656 8.8417969 C 7.0333018 9.2097915 6.9446036 9.6069252 6.9375 10.009766 C 6.9303834 10.41252 7.005356 10.811972 7.15625 11.185547 C 7.3071458 11.559126 7.5315878 11.898763 7.8164062 12.183594 C 8.1012545 12.468442 8.4408315 12.69288 8.8144531 12.84375 C 9.1879278 12.99456 9.587398 13.06958 9.9902344 13.0625 C 10.393092 13.055419 10.790193 12.966761 11.158203 12.802734 C 11.364818 12.710711 11.525176 12.547317 11.705078 12.412109 L 14.125 14.832031 C 12.88731 15.635123 11.479238 16.141019 9.9960938 16.166016 C 4.731623 16.16297 1.6529485 10.399808 1.4394531 9.9941406 C 2.3587317 8.35966 3.583284 6.9268394 5.0390625 5.7460938 z M 8.2910156 8.9980469 L 11.001953 11.708984 C 10.915249 11.765091 10.846758 11.846447 10.751953 11.888672 C 10.506563 11.998045 10.241158 12.057781 9.9726562 12.0625 C 9.7041326 12.06722 9.4385585 12.016605 9.1894531 11.916016 C 8.9404948 11.815485 8.7133893 11.666514 8.5234375 11.476562 C 8.3334759 11.286593 8.1845686 11.059568 8.0839844 10.810547 C 7.9833984 10.561522 7.9327566 10.295789 7.9375 10.027344 C 7.9422364 9.7587442 8.002012 9.4933922 8.1113281 9.2480469 C 8.1535707 9.1532422 8.2348925 9.0847647 8.2910156 8.9980469 z "
     style="color:#000000;font-style:normal;font-variant:normal;font-weight:normal;font-stretch:normal;font-size:medium;line-height:normal;font-family:sans-serif;font-variant-ligatures:normal;font-variant-position:normal;font-variant-caps:normal;font-variant-numeric:normal;font-variant-alternates:normal;font-variant-east-asian:normal;font-feature-settings:normal;font-variation-settings:normal;text-indent:0;text-align:start;text-decoration:none;text-decoration-line:none;text-decoration-style:solid;text-decoration-color:#000000;letter-spacing:normal;word-spacing:normal;text-transform:none;writing-mode:lr-tb;direction:ltr;text-orientation:mixed;dominant-baseline:auto;baseline-shift:baseline;text-anchor:start;white-space:normal;shape-padding:0;shape-margin:0;inline-size:0;clip-rule:nonzero;display:inline;overflow:visible;visibility:visible;isolation:auto;mix-blend-mode:normal;color-interpolation:sRGB;color-interpolation-filters:linearRGB;solid-color:#000000;solid-opacity:1;vector-effect:none;fill:#999999;fill-opacity:1;fill-rule:nonzero;stroke:none;stroke-width:1;stroke-linecap:round;stroke-linejoin:round;stroke-miterlimit:4;stroke-dasharray:none;stroke-dashoffset:0;stroke-opacity:1;color-rendering:auto;image-rendering:auto;shape-rendering:auto;text-rendering:auto;enable-background:accumulate;stop-color:#000000;stop-opacity:1;opacity:1" />
  <path
     id="path16"
     d="M 0.81054688 0.33398438 A 0.5 0.5 0 0 0 0.48046875 0.48046875 A 0.5 0.5 0 0 0 0.48046875 1.1875 L 18.8125 19.519531 A 0.5 0.5 0 0 0 19.519531 19.519531 A 0.5 0.5 0 0 0 19.519531 18.8125 L 1.1875 0.48046875 A 0.5 0.5 0 0 0 0.81054688 0.33398438 z "
     style="color:#000000;font-style:normal;font-variant:normal;font-weight:normal;font-stretch:normal;font-size:medium;line-height:normal;font-family:sans-serif;font-variant-ligatures:normal;font-variant-position:normal;font-variant-caps:normal;font-variant-numeric:normal;font-variant-alternates:normal;font-variant-east-asian:normal;font-feature-settings:normal;font-variation-settings:normal;text-indent:0;text-align:start;text-decoration:none;text-decoration-line:none;text-decoration-style:solid;text-decoration-color:#000000;letter-spacing:normal;word-spacing:normal;text-transform:none;writing-mode:lr-tb;direction:ltr;text-orientation:mixed;dominant-baseline:auto;baseline-shift:baseline;text-anchor:start;white-space:normal;shape-padding:0;shape-margin:0;inline-size:0;clip-rule:nonzero;display:inline;overflow:visible;visibility:visible;isolation:auto;mix-blend-mode:normal;color-interpolation:sRGB;color-interpolation-filters:linearRGB;solid-color:#000000;solid-opacity:1;vector-effect:none;fill:#999999;fill-opacity:1;fill-rule:nonzero;stroke:none;stroke-width:1;stroke-linecap:round;stroke-linejoin:round;stroke-miterlimit:4;stroke-dasharray:none;stroke-dashoffset:0;stroke-opacity:1;color-rendering:auto;image-rendering:auto;shape-rendering:auto;text-rendering:auto;enable-background:accumulate;stop-color:#000000;stop-opacity:1;opacity:1" />
</svg>
