<svg width="24" height="24" viewBox="0 0 24 24" fill="none" xmlns="http://www.w3.org/2000/svg">
<mask id="path-1-inside-1" fill="white">
<path d="M20.8401 4.60987C20.3294 4.09888 19.7229 3.69352 19.0555 3.41696C18.388 3.14039 17.6726 2.99805 16.9501 2.99805C16.2276 2.99805 15.5122 3.14039 14.8448 3.41696C14.1773 3.69352 13.5709 4.09888 13.0601 4.60987L12.0001 5.66987L10.9401 4.60987C9.90843 3.57818 8.50915 2.99858 7.05012 2.99858C5.59109 2.99858 4.19181 3.57818 3.16012 4.60987C2.12843 5.64156 1.54883 7.04084 1.54883 8.49987C1.54883 9.95891 2.12843 11.3582 3.16012 12.3899L4.22012 13.4499L12.0001 21.2299L19.7801 13.4499L20.8401 12.3899C21.3511 11.8791 21.7565 11.2727 22.033 10.6052C22.3096 9.93777 22.4519 9.22236 22.4519 8.49987C22.4519 7.77738 22.3096 7.06198 22.033 6.39452C21.7565 5.72706 21.3511 5.12063 20.8401 4.60987Z"/>
</mask>
<path d="M16.9501 2.99805V22.998V2.99805ZM13.0601 4.60987L27.2023 18.752L27.2056 18.7487L13.0601 4.60987ZM12.0001 5.66987L-2.14201 19.812C5.66847 27.6225 18.3318 27.6225 26.1423 19.812L12.0001 5.66987ZM10.9401 4.60987L-3.20202 18.752L-3.20201 18.752L10.9401 4.60987ZM3.16012 12.3899L-10.982 26.532H-10.982L3.16012 12.3899ZM4.22012 13.4499L-9.92202 27.592L4.22012 13.4499ZM12.0001 21.2299L-2.14202 35.372C5.66847 43.1825 18.3318 43.1825 26.1423 35.372L12.0001 21.2299ZM20.8401 12.3899L6.7013 -1.75558L6.69798 -1.75226L20.8401 12.3899ZM34.9856 -9.52894C32.6175 -11.8981 29.8059 -13.7775 26.7113 -15.0597L11.3996 21.8936C9.63997 21.1645 8.0412 20.0959 6.69466 18.7487L34.9856 -9.52894ZM26.7113 -15.0597C23.6167 -16.342 20.2998 -17.002 16.9501 -17.002V22.998C15.0454 22.998 13.1593 22.6228 11.3996 21.8936L26.7113 -15.0597ZM16.9501 -17.002C13.6004 -17.002 10.2835 -16.342 7.18893 -15.0597L22.5006 21.8936C20.7409 22.6228 18.8549 22.998 16.9501 22.998V-17.002ZM7.18893 -15.0597C4.09434 -13.7775 1.28271 -11.8981 -1.08534 -9.52894L27.2056 18.7487C25.859 20.0959 24.2603 21.1645 22.5006 21.8936L7.18893 -15.0597ZM-1.08201 -9.53227L-2.14201 -8.47227L26.1423 19.812L27.2023 18.752L-1.08201 -9.53227ZM26.1423 -8.47227L25.0823 -9.53227L-3.20201 18.752L-2.14201 19.812L26.1423 -8.47227ZM25.0823 -9.53226C20.2998 -14.3147 13.8135 -17.0014 7.05012 -17.0014V22.9986C3.20482 22.9986 -0.482983 21.471 -3.20202 18.752L25.0823 -9.53226ZM7.05012 -17.0014C0.286754 -17.0014 -6.1996 -14.3147 -10.982 -9.53226L17.3023 18.752C14.5832 21.471 10.8954 22.9986 7.05012 22.9986V-17.0014ZM-10.982 -9.53226C-15.7644 -4.74984 -18.4512 1.73651 -18.4512 8.49987H21.5488C21.5488 12.3452 20.0213 16.033 17.3023 18.752L-10.982 -9.53226ZM-18.4512 8.49987C-18.4512 15.2632 -15.7644 21.7496 -10.982 26.532L17.3023 -1.75226C20.0213 0.966773 21.5488 4.65458 21.5488 8.49987H-18.4512ZM-10.982 26.532L-9.92202 27.592L18.3623 -0.692264L17.3023 -1.75226L-10.982 26.532ZM-9.92202 27.592L-2.14202 35.372L26.1423 7.08774L18.3623 -0.692265L-9.92202 27.592ZM26.1423 35.372L33.9223 27.592L5.63798 -0.692264L-2.14202 7.08774L26.1423 35.372ZM33.9223 27.592L34.9823 26.532L6.69798 -1.75226L5.63798 -0.692264L33.9223 27.592ZM34.9789 26.5353C37.3481 24.1673 39.2275 21.3556 40.5097 18.2611L3.55634 2.94939C4.28545 1.18974 5.35412 -0.40903 6.7013 -1.75558L34.9789 26.5353ZM40.5097 18.2611C41.792 15.1665 42.4519 11.8496 42.4519 8.49987H2.45194C2.45194 6.59511 2.82723 4.70903 3.55634 2.94939L40.5097 18.2611ZM42.4519 8.49987C42.4519 5.15013 41.792 1.83324 40.5097 -1.26132L3.55634 14.0504C2.82723 12.2907 2.45194 10.4046 2.45194 8.49987H42.4519ZM40.5097 -1.26132C39.2275 -4.35589 37.3481 -7.16752 34.9789 -9.53558L6.7013 18.7553C5.35412 17.4088 4.28545 15.81 3.55634 14.0504L40.5097 -1.26132Z" fill="#222222" mask="url(#path-1-inside-1)"/>
</svg>
