<?xml version="1.0" encoding="UTF-8" standalone="no"?>
<svg
   xmlns:dc="http://purl.org/dc/elements/1.1/"
   xmlns:cc="http://creativecommons.org/ns#"
   xmlns:rdf="http://www.w3.org/1999/02/22-rdf-syntax-ns#"
   xmlns:svg="http://www.w3.org/2000/svg"
   xmlns="http://www.w3.org/2000/svg"
   xmlns:sodipodi="http://sodipodi.sourceforge.net/DTD/sodipodi-0.dtd"
   xmlns:inkscape="http://www.inkscape.org/namespaces/inkscape"
   inkscape:version="1.0 (4035a4fb49, 2020-05-01)"
   sodipodi:docname="heart_fill.svg"
   id="svg7"
   version="1.1"
   fill="none"
   viewBox="0 0 24 24"
   height="24"
   width="24">
  <metadata
     id="metadata13">
    <rdf:RDF>
      <cc:Work
         rdf:about="">
        <dc:format>image/svg+xml</dc:format>
        <dc:type
           rdf:resource="http://purl.org/dc/dcmitype/StillImage" />
      </cc:Work>
    </rdf:RDF>
  </metadata>
  <defs
     id="defs11" />
  <sodipodi:namedview
     inkscape:current-layer="svg7"
     inkscape:window-maximized="0"
     inkscape:window-y="0"
     inkscape:window-x="0"
     inkscape:cy="13.530948"
     inkscape:cx="13.067832"
     inkscape:zoom="8.8541667"
     showgrid="false"
     id="namedview9"
     inkscape:window-height="480"
     inkscape:window-width="687"
     inkscape:pageshadow="2"
     inkscape:pageopacity="0"
     guidetolerance="10"
     gridtolerance="10"
     objecttolerance="10"
     borderopacity="1"
     bordercolor="#666666"
     pagecolor="#ffffff" />
  <mask
     fill="white"
     id="path-1-inside-1">
    <path
       id="path2"
       d="M20.8401 4.60987C20.3294 4.09888 19.7229 3.69352 19.0555 3.41696C18.388 3.14039 17.6726 2.99805 16.9501 2.99805C16.2276 2.99805 15.5122 3.14039 14.8448 3.41696C14.1773 3.69352 13.5709 4.09888 13.0601 4.60987L12.0001 5.66987L10.9401 4.60987C9.90843 3.57818 8.50915 2.99858 7.05012 2.99858C5.59109 2.99858 4.19181 3.57818 3.16012 4.60987C2.12843 5.64156 1.54883 7.04084 1.54883 8.49987C1.54883 9.95891 2.12843 11.3582 3.16012 12.3899L4.22012 13.4499L12.0001 21.2299L19.7801 13.4499L20.8401 12.3899C21.3511 11.8791 21.7565 11.2727 22.033 10.6052C22.3096 9.93777 22.4519 9.22236 22.4519 8.49987C22.4519 7.77738 22.3096 7.06198 22.033 6.39452C21.7565 5.72706 21.3511 5.12063 20.8401 4.60987Z" />
  </mask>
  <g
     style="opacity:1"
     mask="url(#path-1-inside-1)"
     id="g15">
    <path
       id="path17"
       d="M 16.9501,2.99805 V 22.998 Z m -3.89,1.61182 14.1422,14.14213 0.0033,-0.0033 z m -1.06,1.06 L -2.14201,19.812 c 7.81048,7.8105 20.47381,7.8105 28.28431,0 z m -1.06,-1.06 L -3.20202,18.752 h 1e-5 z M 3.16012,12.3899 -10.982,26.532 v 0 z m 1.06,1.06 -14.14214,14.1421 z m 7.77998,7.78 -14.14212,14.1421 c 7.81049,7.8105 20.47382,7.8105 28.28432,0 z m 8.84,-8.84 L 6.7013,-1.75558 6.69798,-1.75226 Z M 34.9856,-9.52894 C 32.6175,-11.8981 29.8059,-13.7775 26.7113,-15.0597 L 11.3996,21.8936 C 9.63997,21.1645 8.0412,20.0959 6.69466,18.7487 Z m -8.2743,-5.53076 c -3.0946,-1.2823 -6.4115,-1.9423 -9.7612,-1.9423 v 40 c -1.9047,0 -3.7908,-0.3752 -5.5505,-1.1044 z m -9.7612,-1.9423 c -3.3497,0 -6.6666,0.66 -9.76117,1.9423 L 22.5006,21.8936 c -1.7597,0.7292 -3.6457,1.1044 -5.5505,1.1044 z m -9.76117,1.9423 c -3.09459,1.2822 -5.90622,3.1616 -8.27427,5.53076 L 27.2056,18.7487 c -1.3466,1.3472 -2.9453,2.4158 -4.705,3.1449 z m -8.27094,5.52743 -1.06,1.06 28.28431,28.28427 1.06,-1.06 z m 27.22431,1.06 -1.06,-1.06 -28.28431,28.28427 1.06,1.06 z m -1.06,-1.05999 C 20.2998,-14.3147 13.8135,-17.0014 7.05012,-17.0014 v 40 c -3.8453,0 -7.533103,-1.5276 -10.25214,-4.2466 z M 7.05012,-17.0014 c -6.763366,0 -13.24972,2.6867 -18.03212,7.46914 L 17.3023,18.752 c -2.7191,2.719 -6.4069,4.2466 -10.25218,4.2466 z M -10.982,-9.53226 c -4.7824,4.78242 -7.4692,11.26877 -7.4692,18.03213 h 40 c 0,3.84533 -1.5275,7.53313 -4.2465,10.25213 z m -7.4692,18.03213 c 0,6.76333 2.6868,13.24973 7.4692,18.03213 L 17.3023,-1.75226 c 2.719,2.719033 4.2465,6.40684 4.2465,10.25213 z m 7.4692,18.03213 1.05998,1.06 28.28432,-28.284264 -1.06,-1.059996 z m 1.05998,1.06 7.78,7.78 28.28432,-28.28426 -7.78,-7.780005 z m 36.06432,7.78 7.78,-7.78 -28.28432,-28.284264 -7.78,7.780004 z m 7.78,-7.78 1.06,-1.06 -28.28432,-28.28426 -1.06,1.059996 z m 1.0566,-1.0567 c 2.3692,-2.368 4.2486,-5.1797 5.5308,-8.2742 L 3.55634,2.94939 C 4.28545,1.18974 5.35412,-0.40903 6.7013,-1.75558 Z m 5.5308,-8.2742 c 1.2823,-3.0946 1.9422,-6.4115 1.9422,-9.76123 H 2.45194 c 0,-1.90476 0.37529,-3.79084 1.1044,-5.55048 z m 1.9422,-9.76123 c 0,-3.34974 -0.6599,-6.66663 -1.9422,-9.76119 L 3.55634,14.0504 C 2.82723,12.2907 2.45194,10.4046 2.45194,8.49987 Z m -1.9422,-9.76119 c -1.2822,-3.09457 -3.1616,-5.9062 -5.5308,-8.27426 L 6.7013,18.7553 C 5.35412,17.4088 4.28545,15.81 3.55634,14.0504 Z"
       style="color:#000000;font-style:normal;font-variant:normal;font-weight:normal;font-stretch:normal;font-size:medium;line-height:normal;font-family:sans-serif;font-variant-ligatures:normal;font-variant-position:normal;font-variant-caps:normal;font-variant-numeric:normal;font-variant-alternates:normal;font-variant-east-asian:normal;font-feature-settings:normal;font-variation-settings:normal;text-indent:0;text-align:start;text-decoration:none;text-decoration-line:none;text-decoration-style:solid;text-decoration-color:#000000;letter-spacing:normal;word-spacing:normal;text-transform:none;writing-mode:lr-tb;direction:ltr;text-orientation:mixed;dominant-baseline:auto;baseline-shift:baseline;text-anchor:start;white-space:normal;shape-padding:0;shape-margin:0;inline-size:0;clip-rule:nonzero;display:inline;overflow:visible;visibility:visible;isolation:auto;mix-blend-mode:normal;color-interpolation:sRGB;color-interpolation-filters:linearRGB;solid-color:#000000;solid-opacity:1;vector-effect:none;fill:#222222;fill-opacity:1;fill-rule:nonzero;stroke-width:1;stroke-linecap:butt;stroke-linejoin:miter;stroke-miterlimit:4;stroke-dasharray:none;stroke-dashoffset:0;stroke-opacity:1.0;color-rendering:auto;image-rendering:auto;shape-rendering:auto;text-rendering:auto;enable-background:accumulate;stop-color:#000000;stop-opacity:1;stroke:none;" />
    <path
       id="path19"
       d="M 6.5507812 -17.501953 L 6.5507812 -17.453125 C 0.0071801502 -17.325722 -6.2301433 -14.741999 -10.947266 -10.205078 L -10.982422 -10.240234 L -11.335938 -9.8867188 L -11.689453 -9.5332031 L -11.654297 -9.4980469 C -16.191138 -4.7809559 -18.774889 1.4564698 -18.902344 8 L -18.951172 8 L -18.951172 8.5 L -18.951172 9 L -18.902344 9 C -18.77489 15.543456 -16.191075 21.77903 -11.654297 26.496094 L -11.689453 26.53125 L -11.335938 26.884766 L -10.982422 27.238281 L -10.628906 27.591797 L -10.275391 27.945312 L -9.921875 28.298828 L -2.8496094 35.371094 L -2.4960938 35.724609 L -2.1425781 36.080078 L -2.1054688 36.042969 C 5.7977927 43.566297 18.202198 43.566297 26.105469 36.042969 L 26.142578 36.080078 L 26.496094 35.724609 L 26.849609 35.371094 L 33.921875 28.298828 L 34.628906 27.591797 L 34.978516 27.242188 L 35.332031 26.888672 L 35.689453 26.53125 L 35.654297 26.496094 C 37.78592 24.280253 39.502705 21.711717 40.734375 18.894531 L 40.779297 18.914062 L 40.970703 18.453125 L 41.162109 17.990234 L 41.117188 17.970703 C 42.238936 15.107093 42.842677 12.074882 42.902344 9 L 42.951172 9 L 42.951172 8.5 L 42.951172 8 L 42.902344 8 C 42.842677 4.9251112 42.238937 1.8928754 41.117188 -0.97070312 L 41.162109 -0.99023438 L 40.970703 -1.453125 L 40.779297 -1.9140625 L 40.734375 -1.8945312 C 39.503275 -4.7104656 37.7865 -7.2770018 35.65625 -9.4921875 L 35.693359 -9.5292969 L 35.339844 -9.8828125 C 35.337534 -9.8851237 35.334342 -9.8863616 35.332031 -9.8886719 L 35.328125 -9.8925781 L 34.978516 -10.242188 L 34.943359 -10.207031 C 32.728759 -12.33666 30.160752 -14.052169 27.345703 -15.283203 L 27.365234 -15.330078 L 26.902344 -15.521484 L 26.441406 -15.712891 L 26.421875 -15.667969 C 23.557761 -16.790161 20.52471 -17.393437 17.449219 -17.453125 L 17.449219 -17.501953 L 16.949219 -17.501953 L 16.449219 -17.501953 L 16.449219 -17.453125 C 14.950313 -17.424024 13.45812 -17.29858 11.992188 -17.013672 C 10.538023 -17.295382 9.0501751 -17.423921 7.5507812 -17.453125 L 7.5507812 -17.501953 L 7.0507812 -17.501953 L 6.5507812 -17.501953 z M 6.5507812 -16.453125 L 6.5507812 -15.335938 L 6.5351562 -15.330078 L 6.5507812 -15.292969 L 6.5507812 -15.283203 C 3.7356696 -14.051693 1.1675528 -12.335279 -1.046875 -10.205078 L -1.0820312 -10.240234 L -1.4355469 -9.8867188 C -1.4368489 -9.8854167 -1.4381514 -9.8841148 -1.4394531 -9.8828125 L -1.7929688 -9.5292969 L -2.8496094 -8.4726562 L 4.9316406 -0.69140625 L 1.7480469 2.4902344 L -10.240234 -9.4980469 C -5.7107553 -13.847343 0.27249643 -16.325993 6.5507812 -16.453125 z M 7.5507812 -16.453125 C 8.1902956 -16.440175 8.8128124 -16.32504 9.4453125 -16.263672 C 8.813049 -16.072103 8.1681956 -15.929295 7.5507812 -15.689453 L 7.5507812 -16.453125 z M 16.449219 -16.453125 L 16.449219 -15.689453 C 15.833279 -15.928749 15.185798 -16.073737 14.552734 -16.265625 C 15.186025 -16.327015 15.81141 -16.440246 16.449219 -16.453125 z M 17.449219 -16.453125 C 20.393351 -16.3937 23.296402 -15.816296 26.039062 -14.744141 L 24.384766 -10.748047 C 22.301019 -12.62327 19.981546 -14.17375 17.449219 -15.28125 L 17.449219 -16.453125 z M 12.001953 -16 C 13.527932 -15.69159 15.01317 -15.231491 16.449219 -14.648438 L 16.449219 -1.6074219 L 16.449219 -1.6054688 L 14.226562 0.6171875 L 7.8613281 -14.744141 C 9.2097487 -15.271267 10.588321 -15.714388 12.001953 -16 z M 26.962891 -14.361328 C 29.657032 -13.180796 32.114539 -11.537157 34.236328 -9.5 L 22.251953 2.4902344 L 20.646484 0.88476562 L 22.876953 -4.5 L 22.878906 -4.5019531 L 26.849609 -8.4726562 L 26.496094 -8.8261719 L 25.789062 -9.5332031 L 25.435547 -9.8867188 L 25.205078 -10.117188 L 26.962891 -14.361328 z M 6.5507812 -14.154297 L 6.5507812 -2.6074219 L -0.33984375 -9.4980469 C 1.6767465 -11.434897 4.0118067 -12.988047 6.5507812 -14.154297 z M 17.449219 -14.154297 C 19.831455 -13.060586 22.032771 -11.595113 23.986328 -9.7871094 L 23.53125 -8.6894531 L 23.53125 -8.6875 L 17.449219 -2.6074219 L 17.449219 -14.154297 z M 7.5507812 -12.878906 L 13.460938 1.3828125 L 12.001953 2.8398438 L 7.5507812 -1.6132812 L 7.5507812 -12.878906 z M 25.082031 -8.8242188 L 25.435547 -8.4726562 L 23.878906 -6.9160156 L 24.376953 -8.1191406 L 24.378906 -8.1230469 L 25.082031 -8.8242188 z M -1.0859375 -8.8222656 L 5.9902344 -1.75 L 5.6386719 -1.3984375 L -1.4355469 -8.4726562 L -1.0859375 -8.8222656 z M -10.947266 -8.7890625 L 1.0410156 3.1972656 L 1.0410156 3.1992188 L -2.8496094 7.0878906 L -1.9375 8 L -17.902344 8 C -17.775196 1.7214107 -15.296943 -4.259486 -10.947266 -8.7890625 z M 34.949219 -8.7851562 C 36.986761 -6.6630277 38.62997 -4.2063941 39.810547 -1.5117188 L 24.564453 4.8046875 L 22.958984 3.1992188 L 22.958984 3.1972656 L 34.949219 -8.7851562 z M 22.529297 -6.2714844 L 22.03125 -5.0683594 L 22.029297 -5.0664062 L 18.363281 -1.3984375 L 18.361328 -1.3984375 L 18.009766 -1.7519531 L 22.529297 -6.2714844 z M 21.029297 -2.6523438 L 19.880859 0.12109375 L 19.070312 -0.69140625 L 21.029297 -2.6523438 z M 6.5507812 -0.7890625 L 6.5507812 -0.48632812 L 6.4140625 -0.62304688 C 6.4610464 -0.67733827 6.5029432 -0.73547338 6.5507812 -0.7890625 z M 17.449219 -0.7890625 C 17.497167 -0.73534723 17.538884 -0.67742463 17.585938 -0.62304688 L 17.449219 -0.48632812 L 17.449219 -0.7890625 z M 40.193359 -0.58789062 C 41.265066 2.1542172 41.84294 5.0564534 41.902344 8 L 25.9375 8 L 26.849609 7.0878906 L 25.330078 5.5703125 L 25.330078 5.5683594 L 40.193359 -0.58789062 z M 16.449219 -0.19140625 L 16.449219 0.51367188 L 14.847656 2.1152344 L 14.640625 1.6171875 L 16.449219 -0.19140625 z M 7.5507812 -0.18945312 L 10.482422 2.7402344 L 11.292969 3.5488281 L 11.292969 3.5507812 L 10.939453 3.9023438 L 7.5507812 0.51367188 L 7.5507812 -0.18945312 z M 5.7773438 0.15429688 L 6.5507812 0.92773438 L 6.5507812 3.6503906 L 4.2539062 2.6992188 L 4.2539062 2.6972656 C 4.6676204 1.7924458 5.1836459 0.94912334 5.7773438 0.15429688 z M 18.222656 0.15625 C 18.594645 0.65443535 18.919757 1.1730105 19.220703 1.7128906 C 19.220983 1.7133934 19.220423 1.7143409 19.220703 1.7148438 L 17.449219 5.9863281 L 17.449219 2.9980469 L 17.449219 0.9296875 L 17.449219 0.92773438 L 18.222656 0.15625 z M 7.5507812 1.9277344 L 10.232422 4.609375 L 9.8339844 5.0097656 L 9.8320312 5.0097656 L 7.5507812 4.0644531 L 7.5507812 1.9277344 z M 16.449219 1.9296875 L 16.449219 2.9980469 L 16.449219 5.9824219 L 15.261719 3.1171875 L 15.261719 3.1152344 L 16.449219 1.9296875 z M 20.677734 2.3320312 L 21.544922 3.1972656 L 21.544922 3.1992188 L 21.158203 3.5859375 C 21.010299 3.161259 20.863111 2.7416104 20.677734 2.3320312 z M 13.875 2.3828125 L 14.082031 2.8808594 L 13.0625 3.9003906 L 12.708984 3.5488281 L 12.708984 3.546875 L 13.875 2.3828125 z M 3.234375 2.4199219 L 3.09375 2.7578125 L 2.9023438 3.2207031 L 2.9472656 3.2402344 C 2.9048515 3.3532368 2.8833893 3.472048 2.84375 3.5859375 L 2.4550781 3.1972656 L 3.234375 2.4199219 z M 19.830078 2.8554688 C 20.048466 3.3499087 20.199444 3.8659527 20.359375 4.3828125 L 18.375 6.3671875 L 19.830078 2.8554688 z M 3.8710938 3.6230469 L 6.5507812 4.7324219 L 6.5507812 7.2929688 L 3.640625 4.3828125 C 3.7188972 4.1296194 3.7783913 3.8718488 3.8710938 3.6230469 z M 14.496094 3.8828125 L 15.525391 6.3652344 L 13.769531 4.609375 L 13.769531 4.6074219 L 14.496094 3.8828125 z M 1.7480469 3.90625 L 2.5136719 4.6699219 C 2.2244841 5.7601434 2.0380212 6.8695321 2 8 L 1.9511719 8 L -0.5234375 8 L -1.4355469 7.0878906 L 1.7480469 3.90625 z M 22.251953 3.90625 L 23.564453 5.21875 L 21.796875 5.9511719 C 21.721475 5.5151106 21.599485 5.0960205 21.486328 4.6699219 L 22.251953 3.90625 z M 12 4.2578125 L 12.351562 4.609375 L 12 4.9628906 L 11.648438 4.609375 L 12 4.2578125 z M 7.5507812 5.1464844 L 9.0664062 5.7753906 L 7.5507812 7.2910156 L 7.5507812 5.1464844 z M 10.939453 5.3164062 L 10.941406 5.3164062 L 11.197266 5.5742188 L 10.833984 5.4238281 L 10.939453 5.3164062 z M 13.060547 5.3183594 L 14.576172 6.8320312 L 14.816406 7.0742188 L 13.613281 6.5761719 L 12.707031 5.6699219 L 13.060547 5.3183594 z M 20.689453 5.4667969 C 20.754351 5.7584444 20.789722 6.0534473 20.835938 6.3496094 L 20.726562 6.3945312 L 19.082031 7.0761719 L 20.689453 5.4667969 z M 3.3105469 5.46875 L 3.3125 5.46875 L 5.84375 8 L 3 8 C 3.0307714 7.146125 3.1257523 6.3002039 3.3105469 5.46875 z M 24.330078 5.984375 L 25.435547 7.0878906 L 24.523438 8 L 22.048828 8 L 22 8 C 21.988513 7.6597216 21.934748 7.3270584 21.900391 6.9902344 L 24.330078 5.984375 z M 10.066406 6.1894531 L 10.068359 6.1894531 L 10.566406 6.3964844 L 8.9628906 8 L 8.2578125 8 L 10.066406 6.1894531 z M 11.566406 6.8105469 L 11.568359 6.8105469 L 13.046875 7.4238281 L 13.623047 8 L 10.378906 8 L 11.566406 6.8105469 z M 20.939453 7.3886719 C 20.955898 7.5932917 20.992556 7.7940774 21 8 L 19.464844 8 L 20.939453 7.3886719 z M -17.902344 9 L -0.9375 9 L 2.453125 12.390625 L 0.60546875 14.238281 L 0.5859375 14.255859 L -0.31640625 15.160156 L -0.6953125 15.539062 L -3.4082031 18.251953 L -3.9082031 18.751953 L -4.4082031 19.251953 L -10.947266 25.789062 C -15.296941 21.259503 -17.775196 15.278564 -17.902344 9 z M 0.4765625 9 L 1.9511719 9 L 2 9 C 2.0191044 9.5680172 2.0849212 10.130881 2.1679688 10.691406 L 0.4765625 9 z M 3 9 L 5.8417969 9 L 3.3339844 11.507812 L 3.3105469 11.53125 C 3.125752 10.699784 3.0307713 9.8538651 3 9 z M 9.3769531 9 L 9.3789062 9 L 14.4375 9 L 10.068359 10.810547 L 8.8183594 9.5605469 L 9.3769531 9 z M 19.464844 9 L 21 9 C 20.992556 9.2059246 20.955898 9.4067066 20.939453 9.6113281 L 19.464844 9 z M 22 9 L 22.048828 9 L 23.523438 9 L 22.333984 10.189453 L 21.900391 10.009766 C 21.934748 9.6729393 21.988513 9.3402814 22 9 z M 24.9375 9 L 41.902344 9 C 41.84294 11.943539 41.265067 14.845748 40.193359 17.587891 L 23.333984 10.603516 L 24.9375 9 z M 6.5507812 9.7070312 L 6.5507812 10.412109 L 4.2207031 12.742188 L 3.8671875 12.390625 L 3.875 12.382812 L 3.9257812 12.332031 L 6.5507812 9.7070312 z M 19.085938 9.9257812 L 20.835938 10.650391 C 20.789945 10.945127 20.755903 11.23903 20.691406 11.529297 L 19.085938 9.9257812 z M 14.814453 9.9277344 L 11.998047 12.740234 L 10.833984 11.576172 L 14.814453 9.9277344 z M 8.109375 10.267578 L 8.1113281 10.267578 L 9.0683594 11.224609 L 7.5507812 11.853516 L 7.5507812 10.828125 L 7.5507812 10.826172 L 8.109375 10.267578 z M 18.376953 10.634766 L 18.617188 10.873047 L 18.9375 11.193359 L 20.132812 12.388672 L 20.132812 12.390625 L 19.779297 12.742188 L 18.875 11.837891 L 18.376953 10.634766 z M 15.521484 10.636719 L 13.873047 14.615234 L 12.708984 13.451172 L 15.521484 10.636719 z M 16.449219 11.013672 L 16.449219 16.074219 L 15.890625 16.632812 L 14.638672 15.380859 L 16.449219 11.013672 z M 22.568359 11.369141 L 39.810547 18.511719 C 38.629397 21.207652 36.986167 23.666286 34.947266 25.789062 L 27.910156 18.751953 L 27.910156 18.75 L 27.912109 18.748047 L 21.548828 12.388672 L 22.568359 11.369141 z M 17.449219 11.826172 L 18.027344 12.404297 L 18.640625 13.882812 L 17.449219 15.074219 L 17.449219 11.826172 z M 6.5507812 11.828125 L 6.5507812 12.267578 L 5.7988281 12.580078 L 6.5507812 11.828125 z M 9.8339844 11.990234 L 11.291016 13.447266 L 8.1074219 16.630859 L 7.5507812 16.074219 L 7.5507812 12.935547 L 9.8339844 11.990234 z M 6.5507812 13.349609 L 6.5507812 15.074219 L 5.3320312 13.855469 L 6.5507812 13.349609 z M 2.8417969 13.414062 C 2.8418591 13.414241 2.8436877 13.413884 2.84375 13.414062 C 2.8833892 13.527955 2.9048517 13.64676 2.9472656 13.759766 L 2.9023438 13.779297 L 2.984375 13.978516 L -2.0722656 19.035156 C -2.1989892 18.925509 -2.3359002 18.831286 -2.4589844 18.716797 L 0.27539062 15.980469 L 0.33203125 15.923828 L 1.4101562 14.847656 L 2.8417969 13.414062 z M 21.158203 13.414062 L 26.458984 18.716797 C 26.336311 18.830895 26.198789 18.925673 26.072266 19.035156 L 20.992188 13.955078 C 21.06089 13.779433 21.096151 13.592234 21.158203 13.414062 z M 12.001953 14.158203 L 13.458984 15.615234 L 13.458984 15.617188 L 11.59375 20.117188 L 8.8203125 17.34375 L 12.001953 14.158203 z M 4.3320312 14.269531 L 6.5507812 16.488281 L 6.5507812 17.789062 C 5.6173907 16.743483 4.8371857 15.578377 4.2539062 14.302734 C 4.2536667 14.302211 4.2541457 14.301305 4.2539062 14.300781 L 4.3320312 14.269531 z M 19.054688 14.882812 L 19.220703 15.283203 L 19.220703 15.285156 C 18.722927 16.178394 18.138627 17.016749 17.449219 17.789062 L 17.449219 16.488281 L 19.054688 14.882812 z M 20.542969 14.919922 L 25.294922 19.671875 C 24.500511 20.265153 23.656249 20.779855 22.751953 21.193359 L 20.324219 15.332031 C 20.395488 15.193529 20.476079 15.060507 20.542969 14.919922 z M 3.4570312 14.921875 C 4.117933 16.309862 4.9732943 17.588733 6.0234375 18.712891 L 5.9882812 18.748047 L 6.3378906 19.097656 L 6.3417969 19.101562 C 6.3441061 19.103874 6.3453454 19.107065 6.3476562 19.109375 L 6.5507812 19.3125 L 6.5507812 22.449219 C 3.6953061 22.345987 0.97567397 21.367425 -1.2949219 19.671875 L 3.4570312 14.921875 z M 14.224609 16.380859 L 15.183594 17.339844 L 12.869141 19.652344 L 14.224609 16.380859 z M 19.712891 16.474609 C 19.713055 16.474349 19.71468 16.47487 19.714844 16.474609 L 21.828125 21.578125 C 20.422469 22.102117 18.948414 22.395204 17.449219 22.449219 L 17.449219 19.3125 L 17.65625 19.105469 L 18.009766 18.751953 L 17.974609 18.716797 C 18.626921 18.018914 19.210256 17.273016 19.712891 16.474609 z M 15.890625 18.046875 L 16.449219 18.605469 L 16.449219 18.808594 C 15.33671 19.822142 14.090772 20.653926 12.736328 21.257812 L 12.734375 21.257812 L 12.707031 21.230469 L 15.890625 18.046875 z M 8.1132812 18.050781 L 11.179688 21.117188 L 11.148438 21.193359 C 9.8292328 20.590115 8.622487 19.783368 7.5507812 18.806641 L 7.5507812 18.613281 L 8.1132812 18.050781 z M -3.203125 19.458984 L -3.2011719 19.458984 L -2.8496094 19.8125 L -9.921875 26.884766 L -10.275391 26.53125 L -3.203125 19.458984 z M 27.201172 19.460938 L 34.271484 26.535156 L 33.921875 26.884766 L 26.849609 19.8125 L 27.201172 19.460938 z M 7.5507812 20.09375 C 8.4706294 20.839266 9.4586204 21.482395 10.529297 21.992188 L 10.515625 22.007812 C 9.5484319 22.256255 8.5621512 22.412629 7.5507812 22.449219 L 7.5507812 20.09375 z M 16.449219 20.095703 L 16.449219 22.449219 C 15.442679 22.412927 14.455225 22.255667 13.482422 22.005859 L 13.470703 21.994141 C 14.53494 21.48768 15.524416 20.844799 16.449219 20.095703 z M -2.1074219 20.484375 C 0.54588907 23.010473 3.7067808 24.652406 7.0410156 25.482422 L -2.1425781 34.664062 L -9.2148438 27.591797 L -2.1425781 20.519531 L -2.1074219 20.484375 z M 26.107422 20.484375 L 26.142578 20.519531 L 33.214844 27.591797 L 26.142578 34.664062 L 16.958984 25.482422 C 20.293221 24.652406 23.454105 23.010473 26.107422 20.484375 z M 12.001953 22.595703 C 12.312165 22.704526 12.627235 22.792794 12.943359 22.880859 C 12.94396 22.881027 12.944712 22.880692 12.945312 22.880859 L 14.953125 24.890625 C 12.993015 25.190067 11.006965 25.190222 9.046875 24.890625 L 11.052734 22.884766 C 11.372106 22.795821 11.689599 22.705442 12.001953 22.595703 z M 21 22.869141 C 19.449205 23.680769 17.839593 24.31998 16.164062 24.685547 L 14.759766 23.28125 C 15.32002 23.364231 15.881487 23.430115 16.449219 23.449219 L 16.449219 23.498047 L 16.949219 23.498047 L 17.449219 23.498047 L 17.449219 23.449219 C 18.656739 23.408615 19.840045 23.196 21 22.869141 z M 3.0058594 22.871094 C 4.1577637 23.195577 5.337614 23.408263 6.5507812 23.449219 L 6.5507812 23.498047 L 7.0507812 23.498047 L 7.5507812 23.498047 L 7.5507812 23.449219 C 8.1201488 23.429997 8.6815413 23.364091 9.2402344 23.28125 L 7.8378906 24.685547 C 7.8372825 24.685414 7.8365456 24.68568 7.8359375 24.685547 C 6.1629128 24.32038 4.5545558 23.681003 3.0058594 22.871094 z M 8.140625 25.796875 C 10.689088 26.282601 13.310911 26.282601 15.859375 25.796875 L 25.398438 35.335938 C 17.878561 42.477451 6.1214296 42.477451 -1.3984375 35.335938 L 8.140625 25.796875 z "
       style="color:#000000;font-style:normal;font-variant:normal;font-weight:normal;font-stretch:normal;font-size:medium;line-height:normal;font-family:sans-serif;font-variant-ligatures:normal;font-variant-position:normal;font-variant-caps:normal;font-variant-numeric:normal;font-variant-alternates:normal;font-variant-east-asian:normal;font-feature-settings:normal;font-variation-settings:normal;text-indent:0;text-align:start;text-decoration:none;text-decoration-line:none;text-decoration-style:solid;text-decoration-color:#000000;letter-spacing:normal;word-spacing:normal;text-transform:none;writing-mode:lr-tb;direction:ltr;text-orientation:mixed;dominant-baseline:auto;baseline-shift:baseline;text-anchor:start;white-space:normal;shape-padding:0;shape-margin:0;inline-size:0;clip-rule:nonzero;display:inline;overflow:visible;visibility:visible;isolation:auto;mix-blend-mode:normal;color-interpolation:sRGB;color-interpolation-filters:linearRGB;solid-color:#000000;solid-opacity:1;vector-effect:none;fill-opacity:1;fill-rule:nonzero;stroke-width:1;stroke-linecap:butt;stroke-linejoin:miter;stroke-miterlimit:4;stroke-dasharray:none;stroke-dashoffset:0;stroke-opacity:1.0;color-rendering:auto;image-rendering:auto;shape-rendering:auto;text-rendering:auto;enable-background:accumulate;stop-color:#000000;stop-opacity:1;stroke:none;" />
  </g>
</svg>
