<?xml version="1.0" encoding="UTF-8" standalone="no"?>
<svg
   xmlns:dc="http://purl.org/dc/elements/1.1/"
   xmlns:cc="http://creativecommons.org/ns#"
   xmlns:rdf="http://www.w3.org/1999/02/22-rdf-syntax-ns#"
   xmlns:svg="http://www.w3.org/2000/svg"
   xmlns="http://www.w3.org/2000/svg"
   xmlns:sodipodi="http://sodipodi.sourceforge.net/DTD/sodipodi-0.dtd"
   xmlns:inkscape="http://www.inkscape.org/namespaces/inkscape"
   inkscape:version="1.0 (4035a4fb49, 2020-05-01)"
   sodipodi:docname="instagram.svg"
   id="svg8"
   version="1.1"
   fill="none"
   viewBox="0 0 24 24"
   height="24"
   width="24">
  <metadata
     id="metadata14">
    <rdf:RDF>
      <cc:Work
         rdf:about="">
        <dc:format>image/svg+xml</dc:format>
        <dc:type
           rdf:resource="http://purl.org/dc/dcmitype/StillImage" />
      </cc:Work>
    </rdf:RDF>
  </metadata>
  <defs
     id="defs12" />
  <sodipodi:namedview
     inkscape:current-layer="svg8"
     inkscape:window-maximized="0"
     inkscape:window-y="0"
     inkscape:window-x="0"
     inkscape:cy="12"
     inkscape:cx="12"
     inkscape:zoom="35.416667"
     showgrid="false"
     id="namedview10"
     inkscape:window-height="480"
     inkscape:window-width="687"
     inkscape:pageshadow="2"
     inkscape:pageopacity="0"
     guidetolerance="10"
     gridtolerance="10"
     objecttolerance="10"
     borderopacity="1"
     bordercolor="#666666"
     pagecolor="#ffffff" />
  <path
     id="path26"
     d="M 7 1.5 C 3.9683591 1.5 1.5 3.9683591 1.5 7 L 1.5 17 C 1.5 20.031623 3.9683567 22.5 7 22.5 L 17 22.5 C 20.031625 22.5 22.5 20.031625 22.5 17 L 22.5 7 C 22.5 3.9683567 20.031623 1.5 17 1.5 L 7 1.5 z M 7 2.5 L 17 2.5 C 19.491177 2.5 21.5 4.5088033 21.5 7 L 21.5 17 C 21.5 19.491175 19.491175 21.5 17 21.5 L 7 21.5 C 4.5088033 21.5 2.5 19.491177 2.5 17 L 2.5 7 C 2.5 4.5088009 4.5088009 2.5 7 2.5 z "
     style="color:#000000;font-style:normal;font-variant:normal;font-weight:normal;font-stretch:normal;font-size:medium;line-height:normal;font-family:sans-serif;font-variant-ligatures:normal;font-variant-position:normal;font-variant-caps:normal;font-variant-numeric:normal;font-variant-alternates:normal;font-variant-east-asian:normal;font-feature-settings:normal;font-variation-settings:normal;text-indent:0;text-align:start;text-decoration:none;text-decoration-line:none;text-decoration-style:solid;text-decoration-color:#000000;letter-spacing:normal;word-spacing:normal;text-transform:none;writing-mode:lr-tb;direction:ltr;text-orientation:mixed;dominant-baseline:auto;baseline-shift:baseline;text-anchor:start;white-space:normal;shape-padding:0;shape-margin:0;inline-size:0;clip-rule:nonzero;display:inline;overflow:visible;visibility:visible;isolation:auto;mix-blend-mode:normal;color-interpolation:sRGB;color-interpolation-filters:linearRGB;solid-color:#000000;solid-opacity:1;vector-effect:none;fill:#d5dff0;fill-opacity:1;fill-rule:nonzero;stroke:none;stroke-width:1;stroke-linecap:round;stroke-linejoin:round;stroke-miterlimit:4;stroke-dasharray:none;stroke-dashoffset:0;stroke-opacity:1;color-rendering:auto;image-rendering:auto;shape-rendering:auto;text-rendering:auto;enable-background:accumulate;stop-color:#000000;stop-opacity:1;opacity:1" />
  <path
     id="path22"
     d="M 12.703125 7.5058594 C 11.766865 7.3670347 10.810804 7.5269788 9.9707031 7.9628906 C 9.1306531 8.3987996 8.4489534 9.0882202 8.0234375 9.9335938 C 7.5979433 10.779048 7.4492422 11.737409 7.5996094 12.671875 C 7.7499691 13.606252 8.1920743 14.469441 8.8613281 15.138672 C 9.5305703 15.807892 10.39376 16.249988 11.328125 16.400391 C 12.262619 16.550796 13.221014 16.402127 14.066406 15.976562 C 14.911817 15.551101 15.601203 14.869387 16.037109 14.029297 C 16.473013 13.189212 16.632961 12.233068 16.494141 11.296875 C 16.352515 10.341829 15.907314 9.4580387 15.224609 8.7753906 C 14.542 8.0927361 13.658078 7.6474655 12.703125 7.5058594 z M 12.556641 8.4941406 C 13.299488 8.6042945 13.986588 8.9513964 14.517578 9.4824219 C 15.048674 10.013474 15.395685 10.700406 15.505859 11.443359 C 15.613839 12.171566 15.489487 12.914844 15.150391 13.568359 C 14.811297 14.221869 14.274777 14.753046 13.617188 15.083984 C 12.959579 15.41502 12.213234 15.529104 11.486328 15.412109 C 10.759493 15.295112 10.088957 14.952221 9.5683594 14.431641 C 9.0477732 13.911072 8.7048509 13.240495 8.5878906 12.513672 C 8.4709178 11.786738 8.5849899 11.040558 8.9160156 10.382812 C 9.2470197 9.725206 9.7781707 9.1887004 10.431641 8.8496094 C 11.08514 8.5105212 11.8283 8.3861453 12.556641 8.4941406 z "
     style="color:#000000;font-style:normal;font-variant:normal;font-weight:normal;font-stretch:normal;font-size:medium;line-height:normal;font-family:sans-serif;font-variant-ligatures:normal;font-variant-position:normal;font-variant-caps:normal;font-variant-numeric:normal;font-variant-alternates:normal;font-variant-east-asian:normal;font-feature-settings:normal;font-variation-settings:normal;text-indent:0;text-align:start;text-decoration:none;text-decoration-line:none;text-decoration-style:solid;text-decoration-color:#000000;letter-spacing:normal;word-spacing:normal;text-transform:none;writing-mode:lr-tb;direction:ltr;text-orientation:mixed;dominant-baseline:auto;baseline-shift:baseline;text-anchor:start;white-space:normal;shape-padding:0;shape-margin:0;inline-size:0;clip-rule:nonzero;display:inline;overflow:visible;visibility:visible;isolation:auto;mix-blend-mode:normal;color-interpolation:sRGB;color-interpolation-filters:linearRGB;solid-color:#000000;solid-opacity:1;vector-effect:none;fill:#d5dff0;fill-opacity:1;fill-rule:nonzero;stroke:none;stroke-width:1;stroke-linecap:round;stroke-linejoin:round;stroke-miterlimit:4;stroke-dasharray:none;stroke-dashoffset:0;stroke-opacity:1;color-rendering:auto;image-rendering:auto;shape-rendering:auto;text-rendering:auto;enable-background:accumulate;stop-color:#000000;stop-opacity:1;opacity:1" />
  <path
     id="path18"
     d="M 17.5 6 A 0.5 0.5 0 0 0 17 6.5 A 0.5 0.5 0 0 0 17.5 7 L 17.509766 7 A 0.5 0.5 0 0 0 18.009766 6.5 A 0.5 0.5 0 0 0 17.509766 6 L 17.5 6 z "
     style="color:#000000;font-style:normal;font-variant:normal;font-weight:normal;font-stretch:normal;font-size:medium;line-height:normal;font-family:sans-serif;font-variant-ligatures:normal;font-variant-position:normal;font-variant-caps:normal;font-variant-numeric:normal;font-variant-alternates:normal;font-variant-east-asian:normal;font-feature-settings:normal;font-variation-settings:normal;text-indent:0;text-align:start;text-decoration:none;text-decoration-line:none;text-decoration-style:solid;text-decoration-color:#000000;letter-spacing:normal;word-spacing:normal;text-transform:none;writing-mode:lr-tb;direction:ltr;text-orientation:mixed;dominant-baseline:auto;baseline-shift:baseline;text-anchor:start;white-space:normal;shape-padding:0;shape-margin:0;inline-size:0;clip-rule:nonzero;display:inline;overflow:visible;visibility:visible;isolation:auto;mix-blend-mode:normal;color-interpolation:sRGB;color-interpolation-filters:linearRGB;solid-color:#000000;solid-opacity:1;vector-effect:none;fill:#d5dff0;fill-opacity:1;fill-rule:nonzero;stroke:none;stroke-width:1;stroke-linecap:round;stroke-linejoin:round;stroke-miterlimit:4;stroke-dasharray:none;stroke-dashoffset:0;stroke-opacity:1;color-rendering:auto;image-rendering:auto;shape-rendering:auto;text-rendering:auto;enable-background:accumulate;stop-color:#000000;stop-opacity:1;opacity:1" />
</svg>
