<?xml version="1.0" encoding="UTF-8" standalone="no"?>
<svg
   xmlns:dc="http://purl.org/dc/elements/1.1/"
   xmlns:cc="http://creativecommons.org/ns#"
   xmlns:rdf="http://www.w3.org/1999/02/22-rdf-syntax-ns#"
   xmlns:svg="http://www.w3.org/2000/svg"
   xmlns="http://www.w3.org/2000/svg"
   xmlns:sodipodi="http://sodipodi.sourceforge.net/DTD/sodipodi-0.dtd"
   xmlns:inkscape="http://www.inkscape.org/namespaces/inkscape"
   inkscape:version="1.0 (4035a4fb49, 2020-05-01)"
   sodipodi:docname="telegram.svg"
   id="svg4"
   version="1.1"
   fill="none"
   viewBox="0 0 32 27"
   height="27"
   width="32">
  <metadata
     id="metadata10">
    <rdf:RDF>
      <cc:Work
         rdf:about="">
        <dc:format>image/svg+xml</dc:format>
        <dc:type
           rdf:resource="http://purl.org/dc/dcmitype/StillImage" />
      </cc:Work>
    </rdf:RDF>
  </metadata>
  <defs
     id="defs8" />
  <sodipodi:namedview
     inkscape:current-layer="svg4"
     inkscape:window-maximized="0"
     inkscape:window-y="0"
     inkscape:window-x="0"
     inkscape:cy="13.5"
     inkscape:cx="16"
     inkscape:zoom="31.481481"
     showgrid="false"
     id="namedview6"
     inkscape:window-height="480"
     inkscape:window-width="687"
     inkscape:pageshadow="2"
     inkscape:pageopacity="0"
     guidetolerance="10"
     gridtolerance="10"
     objecttolerance="10"
     borderopacity="1"
     bordercolor="#666666"
     pagecolor="#ffffff" />
  <g
     style="opacity:1"
     id="g12">
    <path
       id="path14"
       d="m 12.5565,17.5756 -0.5293,7.4455 c 0.7573,0 1.0854,-0.3253 1.4787,-0.716 l 3.5507,-3.3934 7.3576,5.3881 c 1.3493,0.7521 2.3,0.356 2.664,-1.2413 L 31.9077,2.4286 31.909,2.42727 C 32.337,0.432551 31.1877,-0.347468 29.873,0.141877 L 1.48561,11.0101 c -1.937384,0.7521 -1.90805,1.8321 -0.32935,2.3214 L 8.41377,15.5889 25.2715,5.04066 c 0.7934,-0.52534 1.5147,-0.23467 0.9214,0.29068 z"
       style="color:#000000;font-style:normal;font-variant:normal;font-weight:normal;font-stretch:normal;font-size:medium;line-height:normal;font-family:sans-serif;font-variant-ligatures:normal;font-variant-position:normal;font-variant-caps:normal;font-variant-numeric:normal;font-variant-alternates:normal;font-variant-east-asian:normal;font-feature-settings:normal;font-variation-settings:normal;text-indent:0;text-align:start;text-decoration:none;text-decoration-line:none;text-decoration-style:solid;text-decoration-color:#000000;letter-spacing:normal;word-spacing:normal;text-transform:none;writing-mode:lr-tb;direction:ltr;text-orientation:mixed;dominant-baseline:auto;baseline-shift:baseline;text-anchor:start;white-space:normal;shape-padding:0;shape-margin:0;inline-size:0;clip-rule:nonzero;display:inline;overflow:visible;visibility:visible;isolation:auto;mix-blend-mode:normal;color-interpolation:sRGB;color-interpolation-filters:linearRGB;solid-color:#000000;solid-opacity:1;vector-effect:none;fill:#222222;fill-opacity:1;fill-rule:nonzero;stroke-width:1;stroke-linecap:butt;stroke-linejoin:miter;stroke-miterlimit:4;stroke-dasharray:none;stroke-dashoffset:0;stroke-opacity:1.0;color-rendering:auto;image-rendering:auto;shape-rendering:auto;text-rendering:auto;enable-background:accumulate;stop-color:#000000;stop-opacity:1;stroke:none;" />
    <path
       id="path16"
       d="M 30.878906 -0.47851562 C 30.498803 -0.52734522 30.090912 -0.47196407 29.699219 -0.32617188 L 29.697266 -0.32617188 L 1.3066406 10.542969 L 1.3046875 10.544922 C 0.78231051 10.747711 0.37207109 10.976601 0.064453125 11.246094 C -0.24316484 11.515586 -0.46242113 11.84285 -0.49609375 12.224609 C -0.52976637 12.606369 -0.34638308 12.976168 -0.072265625 13.232422 C 0.20185183 13.488676 0.56387473 13.671 1.0078125 13.808594 L 8.484375 16.134766 L 24.742188 5.9609375 L 12.072266 17.337891 L 12.058594 17.541016 L 11.490234 25.521484 L 12.027344 25.521484 C 12.923824 25.521484 13.458545 25.05586 13.851562 24.666016 L 13.857422 24.660156 L 17.099609 21.5625 L 24.144531 26.720703 L 24.169922 26.736328 C 24.920799 27.154867 25.675571 27.308567 26.322266 27.015625 C 26.96896 26.722683 27.365443 26.051786 27.566406 25.169922 L 27.566406 25.166016 L 32.367188 2.6738281 L 32.398438 2.53125 C 32.634501 1.4310602 32.451684 0.53212953 31.890625 -0.0078125 C 31.610095 -0.27778352 31.25901 -0.42968603 30.878906 -0.47851562 z M 30.046875 0.61132812 C 30.578189 0.41356752 30.962 0.48647966 31.197266 0.71289062 C 31.432532 0.93930159 31.611858 1.4277364 31.419922 2.3222656 L 26.589844 24.955078 L 26.589844 24.947266 C 26.426807 25.662701 26.167137 25.989061 25.910156 26.105469 C 25.654796 26.221143 25.258135 26.192825 24.666016 25.865234 L 17.013672 20.261719 L 13.15625 23.947266 L 13.154297 23.951172 C 12.955295 24.148858 12.742311 24.146429 12.583984 24.240234 L 13.041016 17.8125 L 26.523438 5.7050781 C 26.726542 5.5252353 26.898603 5.3222528 26.910156 5.0078125 C 26.921709 4.6933722 26.653614 4.4030158 26.419922 4.3203125 C 25.952539 4.154906 25.486343 4.2984346 24.996094 4.6230469 L 8.34375 15.042969 L 1.3046875 12.853516 C 0.95927527 12.746459 0.72617692 12.609318 0.61132812 12.501953 C 0.49647933 12.394589 0.49617062 12.355915 0.5 12.3125 C 0.50382938 12.269085 0.54217259 12.157873 0.72460938 11.998047 C 0.90675654 11.838475 1.218877 11.649596 1.6640625 11.476562 L 30.046875 0.61132812 z "
       style="color:#000000;font-style:normal;font-variant:normal;font-weight:normal;font-stretch:normal;font-size:medium;line-height:normal;font-family:sans-serif;font-variant-ligatures:normal;font-variant-position:normal;font-variant-caps:normal;font-variant-numeric:normal;font-variant-alternates:normal;font-variant-east-asian:normal;font-feature-settings:normal;font-variation-settings:normal;text-indent:0;text-align:start;text-decoration:none;text-decoration-line:none;text-decoration-style:solid;text-decoration-color:#000000;letter-spacing:normal;word-spacing:normal;text-transform:none;writing-mode:lr-tb;direction:ltr;text-orientation:mixed;dominant-baseline:auto;baseline-shift:baseline;text-anchor:start;white-space:normal;shape-padding:0;shape-margin:0;inline-size:0;clip-rule:nonzero;display:inline;overflow:visible;visibility:visible;isolation:auto;mix-blend-mode:normal;color-interpolation:sRGB;color-interpolation-filters:linearRGB;solid-color:#000000;solid-opacity:1;vector-effect:none;fill-opacity:1;fill-rule:nonzero;stroke-width:1;stroke-linecap:butt;stroke-linejoin:miter;stroke-miterlimit:4;stroke-dasharray:none;stroke-dashoffset:0;stroke-opacity:1.0;color-rendering:auto;image-rendering:auto;shape-rendering:auto;text-rendering:auto;enable-background:accumulate;stop-color:#000000;stop-opacity:1;stroke:none;" />
  </g>
</svg>
