<?xml version="1.0" encoding="UTF-8" standalone="no"?>
<svg
   xmlns:dc="http://purl.org/dc/elements/1.1/"
   xmlns:cc="http://creativecommons.org/ns#"
   xmlns:rdf="http://www.w3.org/1999/02/22-rdf-syntax-ns#"
   xmlns:svg="http://www.w3.org/2000/svg"
   xmlns="http://www.w3.org/2000/svg"
   xmlns:sodipodi="http://sodipodi.sourceforge.net/DTD/sodipodi-0.dtd"
   xmlns:inkscape="http://www.inkscape.org/namespaces/inkscape"
   inkscape:version="1.0 (4035a4fb49, 2020-05-01)"
   sodipodi:docname="whatsapp.svg"
   id="svg4"
   version="1.1"
   fill="none"
   viewBox="0 0 24 24"
   height="24"
   width="24">
  <metadata
     id="metadata10">
    <rdf:RDF>
      <cc:Work
         rdf:about="">
        <dc:format>image/svg+xml</dc:format>
        <dc:type
           rdf:resource="http://purl.org/dc/dcmitype/StillImage" />
      </cc:Work>
    </rdf:RDF>
  </metadata>
  <defs
     id="defs8" />
  <sodipodi:namedview
     inkscape:current-layer="svg4"
     inkscape:window-maximized="0"
     inkscape:window-y="0"
     inkscape:window-x="0"
     inkscape:cy="12"
     inkscape:cx="12"
     inkscape:zoom="35.416667"
     showgrid="false"
     id="namedview6"
     inkscape:window-height="480"
     inkscape:window-width="687"
     inkscape:pageshadow="2"
     inkscape:pageopacity="0"
     guidetolerance="10"
     gridtolerance="10"
     objecttolerance="10"
     borderopacity="1"
     bordercolor="#666666"
     pagecolor="#ffffff" />
  <g
     style="opacity:1"
     id="g12">
    <path
       id="path14"
       d="M 12.003,0 H 11.997 C 5.3805,0 0,5.382 0,12 c 0,2.625 0.846,5.058 2.2845,7.0335 L 0.789,23.4915 5.4015,22.017 C 7.299,23.274 9.5625,24 12.003,24 18.6195,24 24,18.6165 24,12 24,5.3835 18.6195,0 12.003,0 Z m 6.9825,16.9455 c -0.2895,0.8175 -1.4385,1.4955 -2.355,1.6935 -0.627,0.1335 -1.446,0.24 -4.203,-0.903 C 8.901,16.275 6.63,12.6915 6.453,12.459 6.2835,12.2265 5.028,10.5615 5.028,8.8395 5.028,7.1175 5.9025,6.279 6.255,5.919 6.5445,5.6235 7.023,5.4885 7.482,5.4885 7.6305,5.4885 7.764,5.496 7.884,5.502 8.2365,5.517 8.4135,5.538 8.646,6.0945 8.9355,6.792 9.6405,8.514 9.7245,8.691 9.81,8.868 9.8955,9.108 9.7755,9.3405 9.663,9.5805 9.564,9.687 9.387,9.891 9.21,10.095 9.042,10.251 8.865,10.47 8.703,10.6605 8.52,10.8645 8.724,11.217 c 0.204,0.345 0.909,1.4955 1.947,2.4195 1.3395,1.1925 2.4255,1.5735 2.814,1.7355 0.2895,0.12 0.6345,0.0915 0.846,-0.1335 0.2685,-0.2895 0.6,-0.7695 0.9375,-1.242 0.24,-0.339 0.543,-0.381 0.861,-0.261 0.324,0.1125 2.0385,0.96 2.391,1.1355 0.3525,0.177 0.585,0.261 0.6705,0.4095 0.084,0.1485 0.084,0.846 -0.2055,1.665 z"
       style="color:#000000;font-style:normal;font-variant:normal;font-weight:normal;font-stretch:normal;font-size:medium;line-height:normal;font-family:sans-serif;font-variant-ligatures:normal;font-variant-position:normal;font-variant-caps:normal;font-variant-numeric:normal;font-variant-alternates:normal;font-variant-east-asian:normal;font-feature-settings:normal;font-variation-settings:normal;text-indent:0;text-align:start;text-decoration:none;text-decoration-line:none;text-decoration-style:solid;text-decoration-color:#000000;letter-spacing:normal;word-spacing:normal;text-transform:none;writing-mode:lr-tb;direction:ltr;text-orientation:mixed;dominant-baseline:auto;baseline-shift:baseline;text-anchor:start;white-space:normal;shape-padding:0;shape-margin:0;inline-size:0;clip-rule:nonzero;display:inline;overflow:visible;visibility:visible;isolation:auto;mix-blend-mode:normal;color-interpolation:sRGB;color-interpolation-filters:linearRGB;solid-color:#000000;solid-opacity:1;vector-effect:none;fill:#222222;fill-opacity:1;fill-rule:nonzero;stroke-width:1;stroke-linecap:butt;stroke-linejoin:miter;stroke-miterlimit:4;stroke-dasharray:none;stroke-dashoffset:0;stroke-opacity:1.0;color-rendering:auto;image-rendering:auto;shape-rendering:auto;text-rendering:auto;enable-background:accumulate;stop-color:#000000;stop-opacity:1;stroke:none;" />
    <path
       id="path16"
       d="M 11.996094 -0.5 C 5.1084534 -0.5 -0.5 5.1109967 -0.5 12 C -0.5 14.627573 0.35092104 17.052394 1.7460938 19.066406 L 0.001953125 24.267578 L 5.375 22.550781 C 7.3031683 23.76796 9.5624571 24.5 12.003906 24.5 C 18.891622 24.5 24.5 18.887565 24.5 12 C 24.5 5.1124352 18.891622 -0.5 12.003906 -0.5 L 11.996094 -0.5 z M 11.996094 0.5 L 12.003906 0.5 C 18.34919 0.5 23.5 5.6545648 23.5 12 C 23.5 18.345435 18.34919 23.5 12.003906 23.5 C 9.6625663 23.5 7.4965091 22.804458 5.6777344 21.599609 L 5.4785156 21.466797 L 1.578125 22.714844 L 2.8398438 18.947266 L 2.6894531 18.738281 C 1.3110345 16.845291 0.5 14.517571 0.5 12 C 0.5 5.6530033 5.6507341 0.5 11.996094 0.5 z M 7.4824219 4.9882812 C 6.9253827 4.9882813 6.3274048 5.1305016 5.8984375 5.5683594 C 5.5636206 5.9103 4.5273437 6.9485638 4.5273438 8.8398438 C 4.5273438 10.804875 5.9023036 12.552921 6.0488281 12.753906 L 6.0527344 12.757812 L 6.0546875 12.761719 C 6.0453997 12.749519 6.1170756 12.852448 6.2050781 12.978516 C 6.2930807 13.104583 6.4139059 13.275347 6.5644531 13.476562 C 6.8655477 13.878994 7.2878647 14.4065 7.8183594 14.976562 C 8.8793488 16.116687 10.374597 17.425966 12.236328 18.197266 C 13.636083 18.777578 14.562225 19.051074 15.25 19.160156 C 15.937775 19.269239 16.403992 19.199251 16.734375 19.128906 L 16.736328 19.126953 C 17.267564 19.012185 17.829817 18.774063 18.324219 18.439453 C 18.818621 18.104843 19.257318 17.677239 19.457031 17.113281 L 19.457031 17.111328 C 19.616645 16.659777 19.69705 16.243579 19.726562 15.904297 C 19.741319 15.734656 19.744241 15.585266 19.734375 15.451172 C 19.724509 15.317078 19.730537 15.218278 19.626953 15.035156 L 19.625 15.033203 L 19.625 15.03125 C 19.504805 14.822491 19.337475 14.726131 19.195312 14.648438 C 19.05315 14.570744 18.909341 14.50678 18.744141 14.423828 C 18.565821 14.335048 18.047356 14.079363 17.53125 13.830078 C 17.018453 13.582392 16.572686 13.36283 16.300781 13.267578 C 16.075795 13.183557 15.810811 13.141216 15.542969 13.210938 C 15.273067 13.281195 15.033039 13.46449 14.861328 13.707031 C 14.521735 14.182478 14.187233 14.658386 13.966797 14.896484 C 13.926983 14.93884 13.810428 14.964164 13.677734 14.910156 C 13.240764 14.727945 12.282664 14.402096 11.003906 13.263672 C 10.037285 12.403211 9.352384 11.298345 9.15625 10.966797 C 9.1076609 10.882838 9.1330178 10.937024 9.1308594 10.943359 C 9.128701 10.949695 9.1619626 10.891901 9.2460938 10.792969 L 9.25 10.789062 L 9.2539062 10.785156 C 9.4066476 10.596171 9.5686801 10.445737 9.765625 10.21875 C 9.9355925 10.022855 10.086229 9.8461399 10.220703 9.5644531 C 10.444004 9.1237828 10.278977 8.6903325 10.173828 8.4726562 C 10.167202 8.4582677 9.9464797 7.9337129 9.7246094 7.3964844 C 9.50191 6.8572485 9.2529316 6.2529241 9.1074219 5.9023438 C 8.9746359 5.5845141 8.8304691 5.3368232 8.5839844 5.1757812 C 8.3388293 5.015608 8.0905307 5.00966 7.9082031 5.0019531 L 7.9042969 5.0019531 C 7.7871834 4.9960794 7.6462416 4.9882812 7.4824219 4.9882812 z M 7.4824219 5.9882812 C 7.6140869 5.9882813 7.7370919 5.995839 7.859375 6.0019531 L 7.8613281 6.0019531 L 7.8632812 6.0019531 C 8.0331806 6.0091829 8.0488441 6.0213388 8.0371094 6.0136719 C 8.0253747 6.0060049 8.0858328 6.048439 8.1855469 6.2871094 L 8.1835938 6.2871094 C 8.327584 6.634029 8.5776056 7.2389077 8.8007812 7.7792969 C 9.0239569 8.319686 9.1944606 8.7398344 9.2734375 8.90625 L 9.2734375 8.9082031 C 9.3387255 9.0433608 9.3433187 9.0894587 9.3320312 9.1113281 L 9.3261719 9.1191406 L 9.3222656 9.1289062 C 9.233485 9.3183049 9.190795 9.3538559 9.0097656 9.5625 C 8.8551678 9.7406805 8.6816748 9.9040094 8.484375 10.146484 C 8.4837729 10.147192 8.4830313 10.149677 8.4824219 10.150391 C 8.4042223 10.241993 8.2661091 10.378896 8.1835938 10.621094 C 8.1004353 10.865179 8.1356047 11.198256 8.2910156 11.466797 L 8.2929688 11.46875 L 8.2929688 11.470703 C 8.5059703 11.830926 9.2299117 13.023472 10.337891 14.009766 C 11.738133 15.256342 12.952939 15.692196 13.292969 15.833984 C 13.738143 16.018513 14.312395 15.987437 14.695312 15.580078 L 14.697266 15.580078 L 14.697266 15.578125 C 15.013616 15.237033 15.341365 14.755292 15.675781 14.287109 L 15.675781 14.285156 C 15.74407 14.188698 15.773823 14.183226 15.794922 14.177734 C 15.81602 14.172242 15.861231 14.168448 15.953125 14.203125 L 15.958984 14.205078 L 15.964844 14.207031 C 16.01748 14.225308 16.587387 14.484003 17.097656 14.730469 C 17.607925 14.976934 18.122695 15.23164 18.296875 15.318359 C 18.484175 15.412408 18.633209 15.479709 18.716797 15.525391 C 18.756618 15.547154 18.730896 15.523289 18.736328 15.527344 C 18.740947 15.591488 18.741327 15.693525 18.730469 15.818359 C 18.708606 16.069702 18.643558 16.411848 18.513672 16.779297 C 18.423885 17.032839 18.14527 17.353063 17.763672 17.611328 C 17.382074 17.869593 16.910655 18.067158 16.525391 18.150391 C 16.22943 18.213387 15.972986 18.261761 15.40625 18.171875 C 14.838525 18.081833 13.976385 17.836126 12.619141 17.273438 C 10.954372 16.583737 9.5511668 15.371875 8.5507812 14.296875 C 8.0505885 13.759375 7.6499367 13.257475 7.3652344 12.876953 C 7.2228832 12.686692 7.1092377 12.526364 7.0253906 12.40625 C 6.944231 12.289985 6.9083205 12.231551 6.8574219 12.164062 L 6.8515625 12.15625 C 6.6533047 11.884129 5.5273438 10.313728 5.5273438 8.8398438 C 5.5273438 7.2871237 6.241145 6.6475906 6.6113281 6.2695312 C 6.7613609 6.116389 7.1214611 5.9882812 7.4824219 5.9882812 z "
       style="color:#000000;font-style:normal;font-variant:normal;font-weight:normal;font-stretch:normal;font-size:medium;line-height:normal;font-family:sans-serif;font-variant-ligatures:normal;font-variant-position:normal;font-variant-caps:normal;font-variant-numeric:normal;font-variant-alternates:normal;font-variant-east-asian:normal;font-feature-settings:normal;font-variation-settings:normal;text-indent:0;text-align:start;text-decoration:none;text-decoration-line:none;text-decoration-style:solid;text-decoration-color:#000000;letter-spacing:normal;word-spacing:normal;text-transform:none;writing-mode:lr-tb;direction:ltr;text-orientation:mixed;dominant-baseline:auto;baseline-shift:baseline;text-anchor:start;white-space:normal;shape-padding:0;shape-margin:0;inline-size:0;clip-rule:nonzero;display:inline;overflow:visible;visibility:visible;isolation:auto;mix-blend-mode:normal;color-interpolation:sRGB;color-interpolation-filters:linearRGB;solid-color:#000000;solid-opacity:1;vector-effect:none;fill-opacity:1;fill-rule:nonzero;stroke-width:1;stroke-linecap:butt;stroke-linejoin:miter;stroke-miterlimit:4;stroke-dasharray:none;stroke-dashoffset:0;stroke-opacity:1.0;color-rendering:auto;image-rendering:auto;shape-rendering:auto;text-rendering:auto;enable-background:accumulate;stop-color:#000000;stop-opacity:1;stroke:none;" />
  </g>
</svg>
