<svg width="92" height="92" viewBox="0 0 92 92" fill="none" xmlns="http://www.w3.org/2000/svg">
<path d="M23 7.66663L11.5 23V76.6666C11.5 78.7 12.3077 80.65 13.7455 82.0878C15.1833 83.5256 17.1333 84.3333 19.1667 84.3333H72.8333C74.8667 84.3333 76.8167 83.5256 78.2545 82.0878C79.6923 80.65 80.5 78.7 80.5 76.6666V23L69 7.66663H23Z" fill="#E9C9A0" stroke="#E9C9A0" stroke-width="2" stroke-linecap="round" stroke-linejoin="round"/>
<path d="M11.5 23H80.5" stroke="white" stroke-width="2" stroke-linecap="round" stroke-linejoin="round"/>
<path d="M30.6667 53.6667C30.6667 49.6001 32.2821 45.7 35.1577 42.8244C38.0332 39.9489 41.9333 38.3334 46 38.3334C50.0666 38.3334 53.9667 39.9489 56.8423 42.8244C59.7179 45.7 61.3333 49.6001 61.3333 53.6667" stroke="white" stroke-width="2" stroke-linecap="round" stroke-linejoin="round"/>
</svg>
