<svg width="500" height="129" viewBox="0 0 500 129" fill="none" xmlns="http://www.w3.org/2000/svg">
<path d="M92.8947 9.64912C94.2982 8.24561 95.9648 7.19299 97.8947 6.66667C98.7719 6.40351 99.7368 6.31579 100.614 6.22807C101.579 6.22807 102.544 6.22807 103.509 6.22807L115.088 6.92982C115.965 7.01754 116.842 7.01754 117.807 6.92982C118.509 6.8421 119.298 6.75438 120 6.49122C120.614 6.31578 121.14 6.14036 121.667 5.78948C122.105 5.52632 122.456 5.26316 122.807 4.91228L126.754 0.964916L126.316 0.614044L125.439 1.40351C125.175 1.66667 124.825 1.92981 124.386 2.01753C123.947 2.19297 123.421 2.28071 122.982 2.28071C122.456 2.36843 121.842 2.36843 121.228 2.36843C120.614 2.36843 120 2.36843 119.298 2.28071L106.316 1.40351C105.263 1.31579 104.21 1.31579 103.158 1.40351C102.193 1.49123 101.14 1.66668 100.263 1.92983" fill="white"/>
<path d="M85.9649 55.7018C87.8947 53.6842 90.3509 52.2807 92.9824 51.5789C94.2105 51.2281 95.5263 51.0526 96.8421 51.0526C98.1579 50.9649 99.5614 51.0526 100.877 51.1403L117.193 52.193C118.421 52.2807 119.737 52.2807 120.965 52.193C122.018 52.1053 123.07 51.9299 124.035 51.6667C124.825 51.4035 125.614 51.1403 126.403 50.7017C127.018 50.3509 127.544 50 128.07 49.4737L133.596 43.9474L132.982 43.5088L131.754 44.6492C131.316 45 130.877 45.3509 130.263 45.5263C129.649 45.7018 128.947 45.8772 128.246 45.9649C127.456 46.0527 126.667 46.0526 125.789 46.0526C124.912 46.0526 124.035 46.0527 123.07 45.9649L104.737 44.7368C103.246 44.6491 101.754 44.6491 100.351 44.7368C98.9474 44.8246 97.5439 45.0877 96.2281 45.5263" fill="white"/>
<path d="M369.912 63.0702C371.228 63.2456 372.544 63.3333 373.86 63.3333C375.965 63.3333 377.895 62.4561 379.386 60.9649L387.368 53.0702C385.526 54.9123 383.333 56.2281 380.877 56.7544C379.737 57.0175 378.597 57.1052 377.456 57.1052C376.228 57.1052 375.088 57.0175 373.86 56.8421L358.772 55.2631C357.456 55.0877 356.14 55 354.825 55C352.719 55 350.789 55.8772 349.298 57.3684L341.316 65.2632C343.158 63.4211 345.351 62.1053 347.807 61.5789C348.947 61.3158 350.088 61.228 351.228 61.228C352.456 61.228 353.597 61.3158 354.825 61.4912L369.912 63.0702Z" fill="white"/>
<path d="M130.351 70.7017C127.544 71.1403 124.649 71.4912 121.842 71.6667C118.684 71.8421 115.175 71.9298 111.403 71.9298H89.2982V47.6316V43.772V23.8597H94.4737H112.105C112.807 23.8597 113.509 23.8597 114.298 23.8597C115 23.8597 115.789 23.8597 116.491 23.8597C118.421 23.8597 120.351 23.9474 122.281 24.0351C124.211 24.1228 126.14 24.386 127.982 24.7369C129.825 25.0877 131.667 25.614 133.421 26.3158C135.175 27.0176 136.842 28.0702 138.333 29.2105V20H81.1403C81.3158 22.6316 81.4035 25.5263 81.5789 28.5965C81.6666 31.6667 81.7543 34.8246 81.8421 37.9825C81.9298 41.2281 81.9298 44.4737 81.9298 47.807C81.9298 51.1404 81.9298 54.386 81.8421 57.6316C81.7543 60.8772 81.6666 64.0351 81.5789 67.0176C81.4912 70.0877 81.3158 72.8948 81.1403 75.6141H107.456C109.912 75.6141 112.281 75.6141 114.737 75.6141C117.193 75.6141 119.649 75.6141 122.193 75.6141H138.947L141.404 66.4035C140 67.4562 138.421 68.3333 136.754 68.8597C134.825 69.7369 132.544 70.3509 130.351 70.7017Z" fill="white"/>
<path d="M60.9649 33.5965C60.0877 31.5789 58.9473 29.7368 57.6316 28.0702C56.3158 26.4035 54.8245 25 53.0701 23.7719C51.3158 22.5439 49.4736 21.6667 47.4561 21.0526C45.2631 20.4386 43.0701 20.0877 40.7894 20.0877H32.4561H0.701721C0.87716 22.2807 0.9649 24.5614 1.05262 27.0175C1.14034 29.4737 1.22805 31.9298 1.31577 34.5614C1.40349 37.193 1.4035 39.8246 1.49122 42.4562C1.49122 45.1755 1.49122 47.807 1.49122 50.5263C1.49122 52.807 1.49118 55 1.40346 57.2807C1.40346 59.5614 1.31579 61.6666 1.22807 63.8596C1.14035 65.9649 1.05259 68.0702 0.964868 70.0877C0.877149 72.1053 0.78944 74.0351 0.701721 75.7895H40.8771C43.2456 75.7895 45.5263 75.4386 47.7193 74.7368C49.7368 74.0351 51.7544 73.0702 53.5087 71.8421C55.2631 70.614 56.7544 69.0351 58.0702 67.3684C59.3859 65.614 60.5263 63.6842 61.4035 61.6666C62.2807 59.4737 62.9824 57.2807 63.421 55C63.8596 52.5439 64.0351 50.0877 64.0351 47.6316C64.0351 45.1754 63.7719 42.6316 63.2456 40.2632C62.5438 37.8948 61.8421 35.7017 60.9649 33.5965ZM56.0526 53.5965C55.8772 55.5263 55.4386 57.3684 55 59.2982C54.5614 61.0526 53.8596 62.7193 53.0701 64.2982C52.2807 65.7895 51.3157 67.1053 50.0877 68.3333C48.8596 69.4737 47.5438 70.3509 45.9649 70.9649C44.2982 71.6667 42.4561 71.9298 40.614 71.9298H8.68421V23.9474H32.4561H40.614C42.4561 23.9474 44.2105 24.2105 45.9649 24.9123C47.4561 25.5263 48.8596 26.4035 50.0877 27.4561C51.3157 28.5965 52.2807 29.9123 53.0701 31.3158C53.8596 32.8947 54.5614 34.4737 55 36.2281C55.5263 38.0702 55.8772 39.9123 56.1403 41.7544C56.4035 43.6842 56.4912 45.7017 56.4912 47.6316C56.4035 49.6491 56.3158 51.6666 56.0526 53.5965Z" fill="white"/>
<path d="M465.439 27.6316C463.684 30.2632 461.842 33.0702 459.912 35.8772L438.947 65.9649L419.737 35.8772C417.719 32.807 415.965 30 414.298 27.3684C412.632 24.7369 411.228 22.2807 409.912 20.0877H400.175C401.667 22.0175 403.246 24.1228 404.912 26.3158C406.491 28.5088 408.158 30.7895 409.825 33.0702C411.491 35.4386 413.158 37.807 414.825 40.1754C416.491 42.6316 418.158 45 419.737 47.4561L437.719 75.7017L460.351 42.8948C461.754 40.8772 463.246 38.7719 464.649 36.7544C466.14 34.7368 467.544 32.7193 468.947 30.7895C470.351 28.8597 471.754 27.0176 473.158 25.1755C474.561 23.3334 475.79 21.5789 477.105 20H470.351C468.772 22.4561 467.193 24.9123 465.439 27.6316Z" fill="white"/>
<path d="M498.772 57.6316C498.684 54.386 498.684 51.1403 498.684 47.807C498.684 44.4737 498.684 41.2281 498.772 37.9824C498.86 34.7368 498.947 31.6667 499.123 28.5965C499.298 25.5263 499.474 22.7193 499.737 20.0877H490.877C491.053 22.7193 491.14 25.614 491.316 28.5965C491.403 31.6667 491.579 34.7368 491.579 37.9824C491.667 41.2281 491.667 44.4737 491.754 47.807C491.754 51.1403 491.754 54.386 491.754 57.6316C491.667 60.8772 491.579 63.9474 491.491 67.0176C491.404 70.0877 491.14 72.8947 490.965 75.5263H499.825C499.561 72.8947 499.386 70 499.21 67.0176C499.035 64.0351 498.86 60.8772 498.772 57.6316Z" fill="white"/>
<path d="M221.14 75C220.614 75 220 74.8246 219.474 74.5614C218.86 74.2105 218.333 73.8597 217.719 73.4211C217.105 72.8947 216.491 72.3684 215.965 71.8421C215.351 71.2281 214.737 70.5263 214.123 69.8245L202.018 55.9649C201.053 54.8245 200 53.7719 198.947 52.807C197.895 51.8421 196.754 51.0526 195.526 50.4386H199.123C201.316 50.4386 203.596 50.1754 205.702 49.5614C207.544 49.0351 209.21 48.2456 210.789 47.2807C212.193 46.4035 213.421 45.1754 214.386 43.8596C215.351 42.6316 216.053 41.2281 216.579 39.7368C217.018 38.2456 217.281 36.7544 217.281 35.2632C217.281 32.1053 216.228 29.1228 214.298 26.6667C213.246 25.3509 212.018 24.2105 210.614 23.2456C209.035 22.193 207.368 21.4035 205.526 20.9649C203.421 20.3509 201.228 20.0877 199.035 20.0877H160.088C160.263 22.2807 160.351 24.5614 160.439 27.0175C160.526 29.4737 160.614 31.9298 160.702 34.5614C160.789 37.193 160.789 39.8246 160.877 42.4562C160.965 45.0877 160.877 47.807 160.877 50.5263C160.877 52.807 160.877 55 160.789 57.2807C160.702 59.5614 160.702 61.6666 160.614 63.8596C160.526 65.9649 160.439 68.0702 160.351 70.0877C160.263 72.1053 160.175 74.0351 160.088 75.7895H168.86C168.772 73.9474 168.684 72.0175 168.596 70C168.509 67.9824 168.421 65.8772 168.333 63.7719C168.246 61.6667 168.246 59.4737 168.158 57.193C168.158 54.9123 168.07 52.7193 168.07 50.4386H180.702C183.509 50.4386 186.228 51.1404 188.596 52.5439C189.737 53.2456 190.789 53.9474 191.667 54.8246C192.632 55.7017 193.596 56.7544 194.474 57.7193L205.263 70C206.053 70.9649 207.018 71.8421 207.982 72.6316C208.772 73.3333 209.649 73.8596 210.526 74.3859C211.228 74.8245 212.018 75.1755 212.895 75.3509C213.509 75.5263 214.211 75.614 214.912 75.614H222.719L222.544 74.8245L221.14 75ZM168.158 46.5789V23.8597H198.86C200.175 23.8597 201.579 24.0351 202.895 24.4737C204.035 24.8245 205.088 25.4386 205.965 26.2281C206.842 26.9298 207.632 27.807 208.158 28.7719C208.772 29.7368 209.21 30.7895 209.474 31.8421C209.737 32.9824 209.912 34.0351 209.912 35.1754C209.912 36.3158 209.737 37.4561 209.474 38.5088C209.21 39.5614 208.684 40.614 208.158 41.579C207.544 42.5439 206.842 43.421 205.965 44.1228C205 44.9123 204.035 45.4386 202.895 45.8772C201.579 46.3158 200.263 46.4912 198.947 46.4912H168.158V46.5789Z" fill="white"/>
<path d="M313.07 28.5965C313.246 25.5263 313.421 22.7193 313.684 20H309.035C307.544 21.9298 306.053 24.0351 304.386 26.2281C302.719 28.4211 301.053 30.6141 299.211 32.9825C297.456 35.2632 295.614 37.6316 293.684 40.0877C291.754 42.5439 289.825 44.9123 287.895 47.3684C285.965 49.8246 284.035 52.193 282.018 54.6491C280.088 57.1053 278.07 59.4737 276.14 61.7544C274.211 59.386 272.193 57.0175 270.263 54.6491C268.246 52.193 266.316 49.8246 264.386 47.3684C262.456 44.9123 260.526 42.5439 258.684 40.0877C256.842 37.6316 255 35.3509 253.246 32.9825C251.491 30.7018 249.825 28.4211 248.158 26.2281C246.579 24.0351 245.088 22.0175 243.684 20H238.684C238.86 22.6316 238.947 25.5263 239.123 28.5965C239.211 31.6667 239.298 34.8246 239.386 37.9825C239.474 41.2281 239.474 44.4737 239.474 47.807C239.474 51.1404 239.474 54.386 239.386 57.6316C239.298 60.8772 239.211 64.0351 239.123 67.0176C239.035 70.0877 238.86 72.8948 238.684 75.6141H245.439C245.263 73.5088 245.175 71.2281 245.088 68.772C245 66.3158 244.912 63.8597 244.825 61.3158C244.737 58.772 244.737 56.1404 244.649 53.5088C244.649 50.8772 244.649 48.1579 244.649 45.5263V34.386C249.737 40.4386 254.737 46.5789 259.649 52.7193C264.561 58.8596 269.386 65.1754 274.123 71.4912L279.035 65C281.053 62.3684 283.07 59.7369 285.263 57.0176C287.456 54.2983 289.649 51.4912 291.842 48.6842C294.035 45.8772 296.316 43.0702 298.597 40.3509C300.877 37.5439 303.07 34.9123 305.263 32.2807V46.8421C305.263 49.386 305.263 51.9298 305.263 54.4737C305.263 57.0175 305.175 59.5614 305.088 61.9298C305 64.386 304.912 66.7544 304.825 69.0351C304.737 71.3158 304.561 73.5088 304.386 75.5263H313.597C313.333 72.8947 313.158 70 312.983 66.9298C312.807 63.8596 312.719 60.7017 312.632 57.5438C312.544 54.386 312.544 51.0527 312.544 47.7193C312.544 44.386 312.544 41.1404 312.632 37.8948C312.719 34.6491 312.895 31.6667 313.07 28.5965Z" fill="white"/>
<path d="M395.526 62.193C393.86 59.7369 392.193 57.2807 390.526 54.7369C388.86 52.193 387.193 49.6491 385.614 47.193L367.632 17.807L345 51.9298C343.509 54.0351 342.105 56.1404 340.702 58.2456C339.298 60.3509 337.807 62.3684 336.404 64.386C335 66.4035 333.596 68.3333 332.193 70.2631C330.789 72.193 329.561 73.9474 328.246 75.7017H335C336.491 73.2456 338.07 70.6141 339.825 67.8948C341.579 65.1755 343.421 62.2807 345.351 59.2982L347.719 55.7018L366.316 28.0702L383.158 55.7018L385.439 59.2982C387.456 62.4561 389.21 65.4386 390.877 68.1579C392.544 70.9649 393.947 73.421 395.263 75.7017H405C403.509 73.6842 401.93 71.4912 400.263 69.2105C398.772 67.0176 397.193 64.6491 395.526 62.193Z" fill="white"/>
<path d="M68.9473 127.719C67.8947 127.719 67.0175 127.368 66.3158 126.754C65.614 126.14 65.2632 125.351 65.2632 124.386C65.2632 123.421 65.614 122.632 66.3158 122.018C67.0175 121.403 67.8947 121.053 68.9473 121.053C69.5614 121.053 70.0877 121.14 70.5263 121.316C70.9649 121.491 71.3158 121.754 71.7544 122.105L70.7895 123.07C70.5263 122.807 70.1754 122.632 69.9123 122.544C69.6491 122.456 69.2982 122.368 68.9473 122.368C68.3333 122.368 67.8948 122.544 67.4562 122.982C67.1053 123.333 66.8421 123.86 66.8421 124.474C66.8421 125.088 67.0176 125.526 67.4562 125.965C67.807 126.403 68.3333 126.579 68.9473 126.579C69.2982 126.579 69.6491 126.491 69.9123 126.403C70.1754 126.316 70.5263 126.053 70.7895 125.789L71.7544 126.754C71.4035 127.105 70.9649 127.368 70.5263 127.632C70.0877 127.632 69.5614 127.719 68.9473 127.719Z" fill="white"/>
<path d="M92.5439 126.754C91.8421 127.368 90.8772 127.719 89.8246 127.719C88.772 127.719 87.807 127.368 87.1053 126.754C86.4035 126.14 86.0526 125.351 86.0526 124.386C86.0526 123.421 86.4035 122.632 87.1053 122.018C87.807 121.403 88.772 121.053 89.8246 121.053C90.8772 121.053 91.8421 121.403 92.5439 122.018C93.2456 122.632 93.5965 123.421 93.5965 124.386C93.6842 125.263 93.2456 126.053 92.5439 126.754ZM88.3333 125.789C88.7719 126.228 89.2982 126.403 89.9123 126.403C90.5263 126.403 91.0526 126.228 91.4912 125.789C91.9298 125.439 92.1053 124.912 92.1053 124.298C92.1053 123.772 91.9298 123.246 91.4912 122.807C91.0526 122.368 90.5263 122.193 89.9123 122.193C89.2982 122.193 88.7719 122.368 88.3333 122.807C87.8948 123.158 87.7193 123.684 87.7193 124.298C87.7193 124.912 87.8948 125.439 88.3333 125.789Z" fill="white"/>
<path d="M108.333 127.632V121.14H109.825L113.158 125.175V121.14H114.737V127.632H113.421L110 123.509V127.632H108.333Z" fill="white"/>
<path d="M132.982 127.719C131.93 127.719 131.053 127.368 130.351 126.754C129.649 126.14 129.298 125.351 129.298 124.386C129.298 123.421 129.649 122.632 130.351 122.018C131.053 121.403 131.93 121.053 132.982 121.053C133.596 121.053 134.123 121.14 134.561 121.316C135 121.491 135.351 121.754 135.789 122.105L134.825 123.07C134.561 122.807 134.211 122.632 133.947 122.544C133.684 122.456 133.333 122.368 132.982 122.368C132.368 122.368 131.93 122.544 131.491 122.982C131.14 123.333 130.877 123.86 130.877 124.474C130.877 125.088 131.053 125.526 131.491 125.965C131.842 126.403 132.368 126.579 132.982 126.579C133.333 126.579 133.684 126.491 133.947 126.403C134.211 126.316 134.561 126.053 134.825 125.789L135.789 126.754C135.439 127.105 135 127.368 134.561 127.632C134.211 127.632 133.684 127.719 132.982 127.719Z" fill="white"/>
<path d="M150.439 127.632V121.14H155.789V122.456H151.93V123.772H155.263V125.088H151.93V126.491H155.789V127.807H150.439V127.632Z" fill="white"/>
<path d="M170.614 127.632V121.14H173.509C174.386 121.14 175 121.316 175.526 121.754C176.053 122.193 176.228 122.719 176.228 123.421C176.228 124.123 175.965 124.737 175.439 125.088C174.912 125.526 174.21 125.702 173.333 125.702H172.105V127.632H170.614ZM172.105 124.386H173.333C173.684 124.386 174.035 124.298 174.21 124.123C174.386 123.947 174.561 123.684 174.561 123.421C174.561 123.07 174.474 122.895 174.21 122.719C173.947 122.544 173.684 122.456 173.246 122.456H172.018V124.386H172.105Z" fill="white"/>
<path d="M192.368 127.632V122.456H190.175V121.14H196.053V122.456H193.86V127.632H192.368Z" fill="white"/>
<path d="M213.509 127.719C212.544 127.719 211.754 127.456 211.228 127.018C210.702 126.579 210.439 125.789 210.439 124.825V121.14H212.018V124.825C212.018 125.351 212.193 125.702 212.456 126.053C212.719 126.316 213.07 126.491 213.596 126.491C214.123 126.491 214.474 126.316 214.737 126.053C215 125.789 215.175 125.439 215.175 124.912V121.14H216.754V124.825C216.754 125.789 216.491 126.491 215.965 127.018C215.439 127.544 214.474 127.719 213.509 127.719Z" fill="white"/>
<path d="M230.965 127.632L234.035 121.053H235.526L238.596 127.632H236.842L236.228 126.14H233.246L232.632 127.632H230.965ZM233.772 124.912H235.702L234.737 122.807L233.772 124.912Z" fill="white"/>
<path d="M252.895 127.632V121.14H254.474V126.316H258.07V127.632H252.895Z" fill="white"/>
<path d="M291.316 127.719C290.175 127.719 289.123 127.368 288.246 126.667L289.21 125.614C289.912 126.14 290.614 126.403 291.316 126.403C291.667 126.403 291.93 126.316 292.105 126.228C292.281 126.14 292.368 125.965 292.368 125.789C292.368 125.614 292.281 125.439 292.105 125.351C291.93 125.263 291.491 125.088 290.965 125C290.526 124.912 290.263 124.825 290 124.737C289.737 124.649 289.474 124.561 289.298 124.386C289.123 124.211 288.947 124.035 288.772 123.86C288.684 123.596 288.596 123.333 288.596 123.07C288.596 122.456 288.86 122.018 289.298 121.667C289.737 121.316 290.351 121.14 291.14 121.14C292.193 121.14 293.07 121.404 293.772 121.93L292.982 122.982C292.281 122.544 291.667 122.368 291.14 122.368C290.877 122.368 290.614 122.456 290.439 122.544C290.263 122.632 290.175 122.807 290.175 122.982C290.175 123.158 290.263 123.333 290.439 123.421C290.614 123.509 291.053 123.684 291.667 123.772C292.456 123.947 292.982 124.211 293.421 124.474C293.772 124.737 293.947 125.175 293.947 125.702C293.947 126.316 293.684 126.842 293.246 127.193C292.807 127.544 292.105 127.719 291.316 127.719Z" fill="white"/>
<path d="M308.596 127.632V121.14H310.175V123.947L313.07 121.14H315L312.105 123.86L315.175 127.632H313.246L311.053 124.825L310.263 125.614V127.632H308.596Z" fill="white"/>
<path d="M329.386 127.632V121.14H330.965V127.632H329.386Z" fill="white"/>
<path d="M346.053 127.632V121.14H347.544L350.877 125.175V121.14H352.456V127.632H351.14L347.719 123.509V127.632H346.053Z" fill="white"/>
<path d="M370.702 127.719C369.649 127.719 368.772 127.368 368.07 126.754C367.368 126.14 367.018 125.351 367.018 124.386C367.018 123.421 367.368 122.632 368.07 122.018C368.772 121.403 369.649 121.053 370.702 121.053C371.316 121.053 371.842 121.14 372.281 121.316C372.719 121.491 373.07 121.754 373.509 122.105L372.544 123.07C372.281 122.807 371.93 122.632 371.667 122.544C371.403 122.456 371.053 122.368 370.702 122.368C370.088 122.368 369.649 122.544 369.211 122.982C368.86 123.333 368.596 123.86 368.596 124.474C368.596 125.088 368.772 125.526 369.211 125.965C369.649 126.403 370.088 126.579 370.702 126.579C371.053 126.579 371.403 126.491 371.667 126.403C371.93 126.316 372.281 126.053 372.544 125.789L373.509 126.754C373.158 127.105 372.719 127.368 372.281 127.632C371.93 127.632 371.403 127.719 370.702 127.719Z" fill="white"/>
<path d="M387.544 127.632L390.614 121.053H392.105L395.175 127.632H393.509L392.895 126.14H389.912L389.298 127.632H387.544ZM390.351 124.912H392.281L391.316 122.807L390.351 124.912Z" fill="white"/>
<path d="M409.474 127.632V121.14H412.719C413.596 121.14 414.298 121.404 414.825 121.842C415.263 122.193 415.439 122.719 415.439 123.333C415.439 124.298 414.912 125 413.947 125.351L415.702 127.719H413.86L412.281 125.614H411.053V127.719H409.474V127.632ZM411.053 124.298H412.632C412.982 124.298 413.333 124.211 413.509 124.035C413.684 123.86 413.86 123.596 413.86 123.333C413.86 123.07 413.772 122.807 413.509 122.632C413.333 122.456 412.982 122.368 412.632 122.368H411.053V124.298Z" fill="white"/>
<path d="M430.175 127.632V121.14H435.526V122.456H431.667V123.772H435V125.088H431.667V126.491H435.526V127.807H430.175V127.632Z" fill="white"/>
</svg>
