<svg width="300" height="46" viewBox="0 0 300 46" fill="none" xmlns="http://www.w3.org/2000/svg">
<path d="M55.413 5.43057C56.2566 4.58699 57.2583 3.9543 58.4183 3.63796C58.9455 3.47979 59.5255 3.42706 60.0527 3.37434C60.6327 3.37434 61.2127 3.37434 61.7926 3.37434L68.7522 3.79612C69.2795 3.84885 69.8067 3.84885 70.3866 3.79612C70.8084 3.7434 71.283 3.69068 71.7048 3.5325C72.0738 3.42705 72.3902 3.32161 72.7065 3.11072C72.9701 2.95254 73.181 2.79437 73.3919 2.58348L75.7645 0.210893L75.5009 0L74.9736 0.474513C74.8155 0.632686 74.6046 0.790848 74.341 0.843572C74.0773 0.94902 73.761 1.00175 73.4974 1.00175C73.181 1.05448 72.812 1.05448 72.4429 1.05448C72.0738 1.05448 71.7048 1.05448 71.283 1.00175L63.4798 0.474513C62.8471 0.421789 62.2144 0.421789 61.5817 0.474513C61.0018 0.527237 60.3691 0.632689 59.8418 0.790861" fill="#333333"/>
<path d="M51.2478 33.1107C52.4077 31.898 53.884 31.0545 55.4657 30.6327C56.2039 30.4218 56.9947 30.3163 57.7856 30.3163C58.5765 30.2636 59.42 30.3163 60.2109 30.369L70.0176 31.0017C70.7557 31.0545 71.5466 31.0545 72.2847 31.0017C72.9174 30.949 73.5501 30.8436 74.1301 30.6854C74.6046 30.5272 75.0791 30.369 75.5536 30.1054C75.9226 29.8945 76.239 29.6836 76.5554 29.3673L79.877 26.0457L79.5079 25.782L78.7698 26.4675C78.5061 26.6784 78.2425 26.8893 77.8735 26.9947C77.5044 27.1002 77.0826 27.2056 76.6608 27.2583C76.1863 27.3111 75.7118 27.3111 75.1845 27.3111C74.6573 27.3111 74.13 27.3111 73.5501 27.2583L62.5308 26.5202C61.6345 26.4675 60.7381 26.4675 59.8946 26.5202C59.051 26.5729 58.2074 26.7311 57.4165 26.9947" fill="#333333"/>
<path d="M221.916 37.5395C222.706 37.645 223.497 37.6977 224.288 37.6977C225.554 37.6977 226.713 37.1705 227.61 36.2742L232.408 31.529C231.3 32.6362 229.982 33.4271 228.506 33.7434C227.821 33.9016 227.135 33.9543 226.45 33.9543C225.712 33.9543 225.026 33.9016 224.288 33.7961L215.22 32.8471C214.429 32.7416 213.638 32.6889 212.847 32.6889C211.582 32.6889 210.422 33.2162 209.525 34.1125L204.728 38.8577C205.835 37.7504 207.153 36.9596 208.629 36.6432C209.315 36.4851 210 36.4323 210.685 36.4323C211.424 36.4323 212.109 36.485 212.847 36.5905L221.916 37.5395Z" fill="#333333"/>
<path d="M77.9262 42.1265C76.239 42.3902 74.4991 42.6011 72.8119 42.7065C70.9139 42.812 68.8049 42.8647 66.5378 42.8647H53.2513V28.2601V25.9403V13.9719H56.362H66.9596C67.3813 13.9719 67.8031 13.9719 68.2777 13.9719C68.6994 13.9719 69.174 13.9719 69.5958 13.9719C70.7557 13.9719 71.9156 14.0246 73.0756 14.0773C74.2355 14.1301 75.3954 14.2883 76.5026 14.4992C77.6098 14.71 78.717 15.0264 79.7715 15.4482C80.826 15.87 81.8278 16.5027 82.7241 17.1881V11.652H48.348C48.4534 13.2338 48.5061 14.9737 48.6116 16.819C48.6643 18.6643 48.717 20.5624 48.7697 22.4605C48.8225 24.4113 48.8225 26.3621 48.8225 28.3656C48.8225 30.3691 48.8225 32.3199 48.7697 34.2707C48.717 36.2215 48.6643 38.1195 48.6116 39.9122C48.5589 41.7575 48.4534 43.4447 48.348 45.0791H64.1652C65.6415 45.0791 67.065 45.0791 68.5413 45.0791C70.0176 45.0791 71.4938 45.0791 73.0228 45.0791H83.0931L84.5694 39.5431C83.7258 40.1758 82.7768 40.703 81.775 41.0193C80.6151 41.5466 79.2443 41.9156 77.9262 42.1265Z" fill="#333333"/>
<path d="M36.2214 19.8243C35.6942 18.6116 35.0088 17.5044 34.2179 16.5027C33.4271 15.5009 32.5308 14.6573 31.4763 13.9192C30.4218 13.1811 29.3146 12.6538 28.1019 12.2847C26.7838 11.9157 25.4657 11.7048 24.0949 11.7048H19.0861H0C0.105448 13.0229 0.158185 14.3937 0.210909 15.87C0.263633 17.3462 0.316351 18.8225 0.369075 20.4042C0.421799 21.986 0.421805 23.5677 0.474529 25.1494C0.474529 26.7839 0.474529 28.3656 0.474529 30C0.474529 31.3708 0.47451 32.6889 0.421786 34.0598C0.421786 35.4306 0.369088 36.696 0.316364 38.0141C0.26364 39.2795 0.21089 40.5449 0.158166 41.7575C0.105442 42.9702 0.0527241 44.1301 0 45.1846H24.1476C25.5712 45.1846 26.942 44.9737 28.2601 44.5519C29.4728 44.1301 30.6854 43.5501 31.7399 42.812C32.7944 42.0738 33.6907 41.1248 34.4816 40.123C35.2724 39.0686 35.9578 37.9086 36.4851 36.696C37.0123 35.3779 37.4341 34.0598 37.6977 32.689C37.9613 31.2127 38.0668 29.7364 38.0668 28.2601C38.0668 26.7839 37.9086 25.2549 37.5923 23.8313C37.1705 22.4078 36.7487 21.0897 36.2214 19.8243ZM33.2689 31.8454C33.1635 33.0053 32.8998 34.1125 32.6362 35.2724C32.3726 36.3269 31.9508 37.3287 31.4763 38.2777C31.0018 39.174 30.4218 39.9649 29.6836 40.703C28.9455 41.3884 28.1547 41.9157 27.2056 42.2847C26.2039 42.7065 25.0967 42.8647 23.9894 42.8647H4.79791V14.0246H19.0861H23.9894C25.0967 14.0246 26.1512 14.1828 27.2056 14.6046C28.1019 14.9737 28.9455 15.5009 29.6836 16.1336C30.4218 16.819 31.0018 17.6099 31.4763 18.4535C31.9508 19.4025 32.3726 20.3515 32.6362 21.406C32.9526 22.5132 33.1634 23.6204 33.3216 24.7276C33.4798 25.8875 33.5325 27.1002 33.5325 28.2601C33.4798 29.4728 33.4271 30.6854 33.2689 31.8454Z" fill="#333333"/>
<path d="M279.332 16.239C278.278 17.8208 277.17 19.5079 276.011 21.1951L263.409 39.2795L251.863 21.1951C250.65 19.3498 249.596 17.6626 248.594 16.0809C247.592 14.4992 246.749 13.0229 245.958 11.7048H240.105C241.002 12.8647 241.951 14.1301 242.953 15.4482C243.902 16.7663 244.903 18.1371 245.905 19.5079C246.907 20.9315 247.909 22.355 248.91 23.7786C249.912 25.2548 250.914 26.6784 251.863 28.1547L262.671 45.1318L276.274 25.413C277.118 24.2004 278.014 22.935 278.858 21.7223C279.754 20.5097 280.598 19.297 281.441 18.1371C282.285 16.9772 283.128 15.87 283.972 14.7628C284.815 13.6556 285.554 12.6011 286.344 11.652H282.285C281.336 13.1283 280.387 14.6046 279.332 16.239Z" fill="#333333"/>
<path d="M299.367 34.2707C299.314 32.3199 299.314 30.3691 299.314 28.3656C299.314 26.3621 299.314 24.4113 299.367 22.4605C299.42 20.5097 299.473 18.6644 299.578 16.819C299.684 14.9737 299.789 13.2865 299.947 11.7048H294.622C294.728 13.2865 294.78 15.0264 294.886 16.819C294.938 18.6644 295.044 20.5097 295.044 22.4605C295.097 24.4113 295.097 26.3621 295.149 28.3656C295.149 30.3691 295.149 32.3199 295.149 34.2707C295.097 36.2215 295.044 38.0668 294.991 39.9122C294.938 41.7575 294.78 43.4446 294.675 45.0264H300C299.842 43.4446 299.736 41.7048 299.631 39.9122C299.525 38.1195 299.42 36.2215 299.367 34.2707Z" fill="#333333"/>
<path d="M132.496 44.71C132.179 44.71 131.81 44.6046 131.494 44.4464C131.125 44.2355 130.808 44.0246 130.439 43.761C130.07 43.4447 129.701 43.1283 129.385 42.812C129.016 42.4429 128.647 42.0211 128.278 41.5993L121.002 33.2689C120.422 32.5835 119.789 31.9508 119.156 31.3709C118.524 30.7909 117.838 30.3164 117.1 29.9473H119.262C120.58 29.9473 121.951 29.7891 123.216 29.4201C124.323 29.1037 125.325 28.6292 126.274 28.0492C127.118 27.522 127.856 26.7839 128.436 25.993C129.016 25.2549 129.438 24.4113 129.754 23.515C130.018 22.6187 130.176 21.7224 130.176 20.826C130.176 18.928 129.543 17.1354 128.383 15.6591C127.75 14.8682 127.012 14.1828 126.169 13.6028C125.22 12.9702 124.218 12.4956 123.111 12.232C121.845 11.8629 120.527 11.7048 119.209 11.7048H95.7996C95.9051 13.0229 95.9578 14.3937 96.0105 15.87C96.0633 17.3462 96.116 18.8225 96.1687 20.4042C96.2214 21.986 96.2214 23.5677 96.2742 25.1494C96.3269 26.7311 96.2742 28.3656 96.2742 30C96.2742 31.3708 96.2741 32.6889 96.2214 34.0598C96.1687 35.4306 96.1687 36.696 96.116 38.0141C96.0632 39.2795 96.0105 40.5449 95.9578 41.7575C95.9051 42.9702 95.8523 44.1301 95.7996 45.1846H101.072C101.019 44.0774 100.967 42.9174 100.914 41.7048C100.861 40.4921 100.808 39.2267 100.756 37.9614C100.703 36.696 100.703 35.3779 100.65 34.0071C100.65 32.6362 100.597 31.3181 100.597 29.9473H108.19C109.877 29.9473 111.511 30.3691 112.935 31.2127C113.62 31.6345 114.253 32.0563 114.78 32.5835C115.36 33.1107 115.94 33.7434 116.467 34.3234L122.953 41.7048C123.427 42.2847 124.007 42.812 124.587 43.2865C125.061 43.7083 125.589 44.0246 126.116 44.341C126.538 44.6046 127.012 44.8155 127.54 44.9209C127.909 45.0264 128.33 45.0791 128.752 45.0791H133.445L133.339 44.6046L132.496 44.71ZM100.65 27.6274V13.9719H119.104C119.895 13.9719 120.738 14.0774 121.529 14.341C122.214 14.5519 122.847 14.9209 123.374 15.3955C123.902 15.8172 124.376 16.3445 124.692 16.9245C125.061 17.5044 125.325 18.1371 125.483 18.7698C125.641 19.4552 125.747 20.0879 125.747 20.7733C125.747 21.4587 125.641 22.1441 125.483 22.7768C125.325 23.4095 125.009 24.0422 124.692 24.6222C124.323 25.2021 123.902 25.7294 123.374 26.1512C122.794 26.6257 122.214 26.942 121.529 27.2056C120.738 27.4693 119.947 27.5747 119.156 27.5747H100.65V27.6274Z" fill="#333333"/>
<path d="M187.75 16.819C187.856 14.9737 187.961 13.2865 188.12 11.652H185.325C184.429 12.812 183.533 14.0773 182.531 15.3955C181.529 16.7136 180.527 18.0317 179.42 19.4552C178.366 20.826 177.258 22.2496 176.098 23.7259C174.938 25.2021 173.779 26.6257 172.619 28.102C171.459 29.5782 170.299 31.0018 169.086 32.478C167.926 33.9543 166.714 35.3779 165.554 36.7487C164.394 35.3252 163.181 33.9016 162.021 32.478C160.808 31.0018 159.649 29.5782 158.489 28.102C157.329 26.6257 156.169 25.2021 155.062 23.7259C153.954 22.2496 152.847 20.8788 151.793 19.4552C150.738 18.0844 149.736 16.7136 148.735 15.3955C147.786 14.0773 146.889 12.8647 146.046 11.652H143.04C143.146 13.2338 143.199 14.9737 143.304 16.819C143.357 18.6643 143.409 20.5624 143.462 22.4605C143.515 24.4113 143.515 26.3621 143.515 28.3656C143.515 30.3691 143.515 32.3199 143.462 34.2707C143.409 36.2215 143.357 38.1195 143.304 39.9122C143.251 41.7575 143.146 43.4447 143.04 45.0791H147.1C146.995 43.8137 146.942 42.4429 146.889 40.9666C146.837 39.4904 146.784 38.0141 146.731 36.4851C146.678 34.9561 146.678 33.3744 146.626 31.7926C146.626 30.2109 146.626 28.5765 146.626 26.9948V20.2988C149.684 23.9368 152.689 27.6274 155.641 31.3181C158.594 35.0088 161.494 38.8049 164.341 42.6011L167.293 38.6995C168.506 37.1178 169.719 35.536 171.037 33.9016C172.355 32.2672 173.673 30.58 174.991 28.8928C176.309 27.2056 177.68 25.5185 179.051 23.884C180.422 22.1969 181.74 20.6151 183.058 19.0334V27.7856C183.058 29.3146 183.058 30.8436 183.058 32.3726C183.058 33.9016 183.005 35.4306 182.953 36.8541C182.9 38.3304 182.847 39.754 182.794 41.1248C182.742 42.4956 182.636 43.8137 182.531 45.0264H188.067C187.909 43.4446 187.803 41.7048 187.698 39.8594C187.592 38.0141 187.54 36.116 187.487 34.2179C187.434 32.3199 187.434 30.3164 187.434 28.3129C187.434 26.3093 187.434 24.3586 187.487 22.4078C187.54 20.457 187.645 18.6643 187.75 16.819Z" fill="#333333"/>
<path d="M237.311 37.0123C236.309 35.536 235.308 34.0598 234.306 32.5308C233.304 31.0018 232.302 29.4728 231.353 27.9965L220.545 10.3339L206.942 30.8436C206.046 32.109 205.202 33.3744 204.359 34.6397C203.515 35.9051 202.619 37.1178 201.775 38.3304C200.931 39.5431 200.088 40.703 199.244 41.8629C198.401 43.0228 197.663 44.0773 196.872 45.1318H200.931C201.828 43.6555 202.777 42.0738 203.831 40.4394C204.886 38.8049 205.993 37.065 207.153 35.2724L208.576 33.1107L219.754 16.5026L229.877 33.1107L231.248 35.2724C232.46 37.1705 233.515 38.9631 234.517 40.5975C235.518 42.2847 236.362 43.761 237.153 45.1318H243.005C242.109 43.9192 241.16 42.6011 240.158 41.2302C239.262 39.9121 238.313 38.4886 237.311 37.0123Z" fill="#333333"/>
</svg>
