<svg width="250" height="65" viewBox="0 0 250 65" fill="none" xmlns="http://www.w3.org/2000/svg">
<path d="M46.4474 4.82455C47.1491 4.12279 47.9824 3.59648 48.9473 3.33332C49.3859 3.20174 49.8684 3.15788 50.307 3.11402C50.7895 3.11402 51.2719 3.11402 51.7544 3.11402L57.5439 3.46489C57.9824 3.50875 58.421 3.50875 58.9035 3.46489C59.2544 3.42103 59.6491 3.37717 60 3.2456C60.307 3.15788 60.5702 3.07016 60.8333 2.89472C61.0526 2.76314 61.2281 2.63157 61.4035 2.45613L63.3772 0.482443L63.1579 0.307007L62.7193 0.701741C62.5877 0.83332 62.4123 0.964891 62.193 1.00875C61.9737 1.09647 61.7105 1.14034 61.4912 1.14034C61.2281 1.1842 60.921 1.1842 60.614 1.1842C60.307 1.1842 60 1.1842 59.6491 1.14034L53.1579 0.701741C52.6316 0.657881 52.1052 0.657881 51.5789 0.701741C51.0965 0.745601 50.5702 0.833323 50.1316 0.964902" fill="white"/>
<path d="M42.9825 27.8509C43.9474 26.8421 45.1754 26.1404 46.4912 25.7895C47.1053 25.614 47.7632 25.5263 48.4211 25.5263C49.079 25.4825 49.7807 25.5263 50.4386 25.5702L58.5965 26.0965C59.2105 26.1404 59.8684 26.1404 60.4825 26.0965C61.0088 26.0527 61.5351 25.9649 62.0175 25.8334C62.4123 25.7018 62.807 25.5702 63.2017 25.3509C63.5088 25.1755 63.7719 25 64.0351 24.7369L66.7982 21.9737L66.4912 21.7544L65.8772 22.3246C65.6579 22.5 65.4386 22.6755 65.1316 22.7632C64.8246 22.8509 64.4737 22.9386 64.1228 22.9825C63.7281 23.0263 63.3333 23.0263 62.8947 23.0263C62.4561 23.0263 62.0175 23.0263 61.5351 22.9825L52.3684 22.3684C51.6228 22.3246 50.8772 22.3246 50.1754 22.3684C49.4737 22.4123 48.7719 22.5439 48.114 22.7632" fill="white"/>
<path d="M184.956 31.535C185.614 31.6228 186.272 31.6666 186.93 31.6666C187.982 31.6666 188.947 31.228 189.693 30.4824L193.684 26.535C192.763 27.4561 191.667 28.114 190.439 28.3771C189.868 28.5087 189.298 28.5526 188.728 28.5526C188.114 28.5526 187.544 28.5087 186.93 28.421L179.386 27.6315C178.728 27.5438 178.07 27.5 177.412 27.5C176.36 27.5 175.395 27.9386 174.649 28.6842L170.658 32.6315C171.579 31.7105 172.675 31.0526 173.904 30.7894C174.474 30.6578 175.044 30.614 175.614 30.614C176.228 30.614 176.798 30.6578 177.412 30.7456L184.956 31.535Z" fill="white"/>
<path d="M65.1754 35.3507C63.7719 35.57 62.3246 35.7455 60.9211 35.8332C59.3421 35.9209 57.5877 35.9648 55.7017 35.9648H44.6491V23.8157V21.8859V11.9297H47.2368H56.0526C56.4035 11.9297 56.7544 11.9297 57.1491 11.9297C57.5 11.9297 57.8947 11.9297 58.2456 11.9297C59.2105 11.9297 60.1754 11.9736 61.1404 12.0174C62.1053 12.0613 63.0702 12.1929 63.9912 12.3683C64.9123 12.5437 65.8333 12.8069 66.7105 13.1578C67.5877 13.5087 68.4211 14.035 69.1667 14.6051V9.99988H40.5702C40.6579 11.3157 40.7017 12.763 40.7895 14.2981C40.8333 15.8332 40.8772 17.4122 40.921 18.9911C40.9649 20.6139 40.9649 22.2367 40.9649 23.9034C40.9649 25.5701 40.9649 27.1929 40.921 28.8157C40.8772 30.4385 40.8333 32.0174 40.7895 33.5087C40.7456 35.0437 40.6579 36.4473 40.5702 37.8069H53.7281C54.9561 37.8069 56.1403 37.8069 57.3684 37.8069C58.5965 37.8069 59.8245 37.8069 61.0965 37.8069H69.4737L70.7018 33.2016C70 33.728 69.2105 34.1665 68.3772 34.4297C67.4123 34.8683 66.2719 35.1753 65.1754 35.3507Z" fill="white"/>
<path d="M30.4824 16.7985C30.0438 15.7897 29.4737 14.8686 28.8158 14.0353C28.1579 13.202 27.4123 12.5002 26.5351 11.8862C25.6579 11.2721 24.7368 10.8335 23.728 10.5265C22.6316 10.2195 21.5351 10.0441 20.3947 10.0441H16.2281H0.350861C0.43858 11.1406 0.48245 12.2809 0.52631 13.509C0.57017 14.737 0.614024 15.9651 0.657883 17.2809C0.701743 18.5967 0.701748 19.9125 0.745608 21.2283C0.745608 22.5879 0.745608 23.9037 0.745608 25.2634C0.745608 26.4037 0.745592 27.5002 0.701732 28.6406C0.701732 29.7809 0.657894 30.8335 0.614035 31.93C0.570175 32.9827 0.526294 34.0353 0.482434 35.0441C0.438575 36.0529 0.39472 37.0178 0.350861 37.895H20.4386C21.6228 37.895 22.7632 37.7195 23.8596 37.3686C24.8684 37.0178 25.8772 36.5353 26.7544 35.9213C27.6316 35.3072 28.3772 34.5178 29.0351 33.6844C29.693 32.8072 30.2631 31.8423 30.7017 30.8335C31.1403 29.737 31.4912 28.6406 31.7105 27.5002C31.9298 26.2721 32.0175 25.0441 32.0175 23.816C32.0175 22.5879 31.8859 21.316 31.6228 20.1318C31.2719 18.9476 30.921 17.8511 30.4824 16.7985ZM28.0263 26.7984C27.9386 27.7634 27.7193 28.6844 27.5 29.6493C27.2807 30.5265 26.9298 31.3599 26.5351 32.1493C26.1403 32.8949 25.6579 33.5529 25.0438 34.1669C24.4298 34.7371 23.7719 35.1757 22.9825 35.4827C22.1491 35.8336 21.2281 35.9651 20.307 35.9651H4.3421V11.9739H16.2281H20.307C21.2281 11.9739 22.1053 12.1055 22.9825 12.4563C23.7281 12.7634 24.4298 13.202 25.0438 13.7283C25.6579 14.2985 26.1403 14.9564 26.5351 15.6581C26.9298 16.4476 27.2807 17.237 27.5 18.1142C27.7631 19.0353 27.9386 19.9563 28.0702 20.8774C28.2017 21.8423 28.2456 22.8511 28.2456 23.816C28.2017 24.8248 28.1579 25.8335 28.0263 26.7984Z" fill="white"/>
<path d="M232.719 13.8157C231.842 15.1315 230.921 16.535 229.956 17.9385L219.474 32.9823L209.868 17.9385C208.86 16.4034 207.982 14.9999 207.149 13.6841C206.316 12.3683 205.614 11.1402 204.956 10.0437H200.088C200.833 11.0087 201.623 12.0613 202.456 13.1578C203.246 14.2543 204.079 15.3946 204.912 16.535C205.746 17.7192 206.579 18.9034 207.412 20.0876C208.246 21.3157 209.079 22.4999 209.868 23.7279L218.86 37.8507L230.175 21.4473C230.877 20.4385 231.623 19.3858 232.325 18.3771C233.07 17.3683 233.772 16.3595 234.474 15.3946C235.175 14.4297 235.877 13.5087 236.579 12.5876C237.281 11.6666 237.895 10.7894 238.553 9.99988H235.175C234.386 11.2279 233.597 12.456 232.719 13.8157Z" fill="white"/>
<path d="M249.386 28.816C249.342 27.1932 249.342 25.5704 249.342 23.9037C249.342 22.2371 249.342 20.6142 249.386 18.9914C249.43 17.3686 249.474 15.8335 249.561 14.2985C249.649 12.7634 249.737 11.3599 249.868 10.0441H245.439C245.526 11.3599 245.57 12.8072 245.658 14.2985C245.702 15.8335 245.789 17.3686 245.789 18.9914C245.833 20.6142 245.833 22.2371 245.877 23.9037C245.877 25.5704 245.877 27.1932 245.877 28.816C245.833 30.4388 245.789 31.9739 245.746 33.509C245.702 35.0441 245.57 36.4476 245.482 37.7634H249.912C249.781 36.4476 249.693 35.0002 249.605 33.509C249.517 32.0178 249.43 30.4388 249.386 28.816Z" fill="white"/>
<path d="M110.57 37.5002C110.307 37.5002 110 37.4125 109.737 37.2809C109.43 37.1055 109.167 36.93 108.86 36.7107C108.553 36.4476 108.246 36.1844 107.982 35.9213C107.675 35.6143 107.368 35.2634 107.061 34.9125L101.009 27.9827C100.526 27.4125 100 26.8862 99.4737 26.4037C98.9474 25.9213 98.3772 25.5265 97.7632 25.2195H99.5614C100.658 25.2195 101.798 25.0879 102.851 24.7809C103.772 24.5178 104.605 24.123 105.395 23.6406C106.096 23.202 106.711 22.5879 107.193 21.93C107.675 21.316 108.026 20.6142 108.289 19.8686C108.509 19.123 108.64 18.3774 108.64 17.6318C108.64 16.0528 108.114 14.5616 107.149 13.3335C106.623 12.6756 106.009 12.1055 105.307 11.623C104.518 11.0967 103.684 10.702 102.763 10.4827C101.711 10.1756 100.614 10.0441 99.5175 10.0441H80.0439C80.1316 11.1406 80.1754 12.2809 80.2193 13.509C80.2632 14.737 80.307 15.9651 80.3509 17.2809C80.3947 18.5967 80.3947 19.9125 80.4386 21.2283C80.4825 22.5441 80.4386 23.9037 80.4386 25.2634C80.4386 26.4037 80.4386 27.5002 80.3947 28.6406C80.3509 29.7809 80.3509 30.8335 80.307 31.93C80.2631 32.9827 80.2193 34.0353 80.1754 35.0441C80.1316 36.0529 80.0877 37.0178 80.0439 37.895H84.4298C84.386 36.9739 84.3421 36.009 84.2982 35.0002C84.2544 33.9914 84.2105 32.9388 84.1667 31.8862C84.1228 30.8336 84.1228 29.7371 84.0789 28.5967C84.0789 27.4564 84.0351 26.3599 84.0351 25.2195H90.3509C91.7544 25.2195 93.114 25.5704 94.2982 26.2722C94.8684 26.623 95.3947 26.9739 95.8333 27.4125C96.3158 27.8511 96.7982 28.3774 97.2368 28.8599L102.632 35.0002C103.026 35.4827 103.509 35.9213 103.991 36.316C104.386 36.6669 104.825 36.93 105.263 37.1932C105.614 37.4125 106.009 37.5879 106.447 37.6757C106.754 37.7634 107.105 37.8072 107.456 37.8072H111.36L111.272 37.4125L110.57 37.5002ZM84.0789 23.2897V11.93H99.4298C100.088 11.93 100.789 12.0178 101.447 12.2371C102.018 12.4125 102.544 12.7195 102.982 13.1142C103.421 13.4651 103.816 13.9037 104.079 14.3862C104.386 14.8686 104.605 15.3949 104.737 15.9213C104.868 16.4914 104.956 17.0178 104.956 17.5879C104.956 18.1581 104.868 18.7283 104.737 19.2546C104.605 19.7809 104.342 20.3072 104.079 20.7897C103.772 21.2722 103.421 21.7107 102.982 22.0616C102.5 22.4563 102.018 22.7195 101.447 22.9388C100.789 23.1581 100.132 23.2458 99.4737 23.2458H84.0789V23.2897Z" fill="white"/>
<path d="M156.535 14.2981C156.623 12.763 156.711 11.3595 156.842 9.99988H154.518C153.772 10.9648 153.026 12.0174 152.193 13.1139C151.36 14.2104 150.526 15.3069 149.605 16.4911C148.728 17.6315 147.807 18.8157 146.842 20.0437C145.877 21.2718 144.912 22.456 143.947 23.6841C142.982 24.9122 142.018 26.0964 141.009 27.3244C140.044 28.5525 139.035 29.7367 138.07 30.8771C137.105 29.6929 136.096 28.5086 135.132 27.3244C134.123 26.0964 133.158 24.9122 132.193 23.6841C131.228 22.456 130.263 21.2718 129.342 20.0437C128.421 18.8157 127.5 17.6753 126.623 16.4911C125.746 15.3508 124.912 14.2104 124.079 13.1139C123.289 12.0174 122.544 11.0086 121.842 9.99988H119.342C119.43 11.3157 119.474 12.763 119.561 14.2981C119.605 15.8332 119.649 17.4122 119.693 18.9911C119.737 20.6139 119.737 22.2367 119.737 23.9034C119.737 25.5701 119.737 27.1929 119.693 28.8157C119.649 30.4385 119.605 32.0174 119.561 33.5087C119.518 35.0437 119.43 36.4473 119.342 37.8069H122.719C122.632 36.7543 122.588 35.6139 122.544 34.3859C122.5 33.1578 122.456 31.9297 122.412 30.6578C122.368 29.3859 122.368 28.0701 122.325 26.7543C122.325 25.4385 122.325 24.0788 122.325 22.763V17.1929C124.868 20.2192 127.368 23.2893 129.825 26.3595C132.281 29.4297 134.693 32.5876 137.061 35.7455L139.518 32.4999C140.526 31.1841 141.535 29.8683 142.632 28.5087C143.728 27.149 144.825 25.7455 145.921 24.342C147.018 22.9385 148.158 21.535 149.298 20.1753C150.439 18.7718 151.535 17.456 152.632 16.1402V23.4209C152.632 24.6929 152.632 25.9648 152.632 27.2367C152.632 28.5086 152.588 29.7806 152.544 30.9648C152.5 32.1929 152.456 33.3771 152.412 34.5174C152.368 35.6578 152.281 36.7543 152.193 37.763H156.798C156.667 36.4472 156.579 34.9999 156.491 33.4648C156.404 31.9297 156.36 30.3507 156.316 28.7718C156.272 27.1929 156.272 25.5262 156.272 23.8595C156.272 22.1929 156.272 20.5701 156.316 18.9473C156.36 17.3244 156.447 15.8332 156.535 14.2981Z" fill="white"/>
<path d="M197.763 31.0964C196.93 29.8684 196.096 28.6403 195.263 27.3684C194.43 26.0964 193.596 24.8245 192.807 23.5964L183.816 8.90344L172.5 25.9649C171.754 27.0175 171.053 28.0701 170.351 29.1228C169.649 30.1754 168.904 31.1842 168.202 32.1929C167.5 33.2017 166.798 34.1666 166.096 35.1315C165.395 36.0964 164.781 36.9736 164.123 37.8508H167.5C168.246 36.6227 169.035 35.307 169.912 33.9473C170.789 32.5877 171.711 31.1403 172.675 29.649L173.86 27.8508L183.158 14.035L191.579 27.8508L192.719 29.649C193.728 31.228 194.605 32.7192 195.439 34.0789C196.272 35.4824 196.974 36.7105 197.632 37.8508H202.5C201.754 36.842 200.965 35.7456 200.132 34.6052C199.386 33.5087 198.596 32.3245 197.763 31.0964Z" fill="white"/>
<path d="M34.4737 63.8596C33.9474 63.8596 33.5088 63.6841 33.1579 63.3771C32.807 63.0701 32.6316 62.6754 32.6316 62.1929C32.6316 61.7104 32.807 61.3157 33.1579 61.0087C33.5088 60.7017 33.9474 60.5262 34.4737 60.5262C34.7807 60.5262 35.0439 60.5701 35.2632 60.6578C35.4825 60.7455 35.6579 60.8771 35.8772 61.0526L35.3947 61.535C35.2632 61.4034 35.0877 61.3157 34.9561 61.2719C34.8246 61.228 34.6491 61.1841 34.4737 61.1841C34.1667 61.1841 33.9474 61.2719 33.7281 61.4912C33.5526 61.6666 33.4211 61.9298 33.4211 62.2368C33.4211 62.5438 33.5088 62.7631 33.7281 62.9824C33.9035 63.2017 34.1667 63.2894 34.4737 63.2894C34.6491 63.2894 34.8246 63.2455 34.9561 63.2017C35.0877 63.1578 35.2632 63.0262 35.3947 62.8947L35.8772 63.3771C35.7017 63.5525 35.4825 63.6841 35.2632 63.8157C35.0439 63.8157 34.7807 63.8596 34.4737 63.8596Z" fill="white"/>
<path d="M46.2719 63.3771C45.9211 63.6841 45.4386 63.8596 44.9123 63.8596C44.386 63.8596 43.9035 63.6841 43.5526 63.3771C43.2018 63.0701 43.0263 62.6754 43.0263 62.1929C43.0263 61.7104 43.2018 61.3157 43.5526 61.0087C43.9035 60.7017 44.386 60.5262 44.9123 60.5262C45.4386 60.5262 45.9211 60.7017 46.2719 61.0087C46.6228 61.3157 46.7983 61.7104 46.7983 62.1929C46.8421 62.6315 46.6228 63.0262 46.2719 63.3771ZM44.1667 62.8947C44.386 63.114 44.6491 63.2017 44.9561 63.2017C45.2632 63.2017 45.5263 63.114 45.7456 62.8947C45.9649 62.7192 46.0526 62.4561 46.0526 62.1491C46.0526 61.8859 45.9649 61.6227 45.7456 61.4034C45.5263 61.1841 45.2632 61.0964 44.9561 61.0964C44.6491 61.0964 44.386 61.1841 44.1667 61.4034C43.9474 61.5789 43.8597 61.842 43.8597 62.1491C43.8597 62.4561 43.9474 62.7192 44.1667 62.8947Z" fill="white"/>
<path d="M54.1667 63.8156V60.5699H54.9123L56.5789 62.5875V60.5699H57.3684V63.8156H56.7105L55 61.7542V63.8156H54.1667Z" fill="white"/>
<path d="M66.4912 63.8596C65.9649 63.8596 65.5263 63.6841 65.1754 63.3771C64.8245 63.0701 64.6491 62.6754 64.6491 62.1929C64.6491 61.7104 64.8245 61.3157 65.1754 61.0087C65.5263 60.7017 65.9649 60.5262 66.4912 60.5262C66.7982 60.5262 67.0614 60.5701 67.2807 60.6578C67.5 60.7455 67.6754 60.8771 67.8947 61.0526L67.4123 61.535C67.2807 61.4034 67.1053 61.3157 66.9737 61.2719C66.8421 61.228 66.6666 61.1841 66.4912 61.1841C66.1842 61.1841 65.9649 61.2719 65.7456 61.4912C65.5702 61.6666 65.4386 61.9298 65.4386 62.2368C65.4386 62.5438 65.5263 62.7631 65.7456 62.9824C65.921 63.2017 66.1842 63.2894 66.4912 63.2894C66.6666 63.2894 66.8421 63.2455 66.9737 63.2017C67.1053 63.1578 67.2807 63.0262 67.4123 62.8947L67.8947 63.3771C67.7193 63.5525 67.5 63.6841 67.2807 63.8157C67.1053 63.8157 66.8421 63.8596 66.4912 63.8596Z" fill="white"/>
<path d="M75.2193 63.8156V60.5699H77.8947V61.2278H75.9649V61.8857H77.6316V62.5436H75.9649V63.2454H77.8947V63.9033H75.2193V63.8156Z" fill="white"/>
<path d="M85.307 63.8156V60.5699H86.7544C87.193 60.5699 87.5 60.6577 87.7631 60.877C88.0263 61.0963 88.114 61.3594 88.114 61.7103C88.114 62.0612 87.9825 62.3682 87.7193 62.5436C87.4561 62.7629 87.1052 62.8507 86.6666 62.8507H86.0526V63.8156H85.307ZM86.0526 62.1928H86.6666C86.8421 62.1928 87.0175 62.1489 87.1052 62.0612C87.193 61.9735 87.2807 61.8419 87.2807 61.7103C87.2807 61.5349 87.2368 61.4472 87.1052 61.3594C86.9737 61.2717 86.8421 61.2278 86.6228 61.2278H86.0088V62.1928H86.0526Z" fill="white"/>
<path d="M96.1842 63.8156V61.2278H95.0877V60.5699H98.0263V61.2278H96.9298V63.8156H96.1842Z" fill="white"/>
<path d="M106.754 63.8594C106.272 63.8594 105.877 63.7278 105.614 63.5085C105.351 63.2892 105.219 62.8945 105.219 62.4121V60.5699H106.009V62.4121C106.009 62.6752 106.096 62.8507 106.228 63.0261C106.36 63.1577 106.535 63.2454 106.798 63.2454C107.061 63.2454 107.237 63.1577 107.368 63.0261C107.5 62.8945 107.588 62.7191 107.588 62.4559V60.5699H108.377V62.4121C108.377 62.8945 108.246 63.2454 107.982 63.5085C107.719 63.7717 107.237 63.8594 106.754 63.8594Z" fill="white"/>
<path d="M115.482 63.8157L117.018 60.5262H117.763L119.298 63.8157H118.421L118.114 63.0701H116.623L116.316 63.8157H115.482ZM116.886 62.4561H117.851L117.368 61.4034L116.886 62.4561Z" fill="white"/>
<path d="M126.447 63.8156V60.5699H127.237V63.1577H129.035V63.8156H126.447Z" fill="white"/>
<path d="M145.658 63.8594C145.088 63.8594 144.561 63.684 144.123 63.3331L144.605 62.8068C144.956 63.07 145.307 63.2015 145.658 63.2015C145.833 63.2015 145.965 63.1577 146.053 63.1138C146.14 63.07 146.184 62.9822 146.184 62.8945C146.184 62.8068 146.14 62.7191 146.053 62.6752C145.965 62.6314 145.746 62.5436 145.482 62.4998C145.263 62.4559 145.132 62.4121 145 62.3682C144.868 62.3243 144.737 62.2805 144.649 62.1928C144.561 62.105 144.474 62.0173 144.386 61.9296C144.342 61.798 144.298 61.6664 144.298 61.5349C144.298 61.2278 144.43 61.0086 144.649 60.8331C144.868 60.6577 145.175 60.5699 145.57 60.5699C146.096 60.5699 146.535 60.7015 146.886 60.9647L146.491 61.491C146.14 61.2717 145.833 61.184 145.57 61.184C145.439 61.184 145.307 61.2279 145.219 61.2717C145.132 61.3156 145.088 61.4033 145.088 61.491C145.088 61.5787 145.132 61.6665 145.219 61.7103C145.307 61.7542 145.526 61.8419 145.833 61.8857C146.228 61.9735 146.491 62.1051 146.711 62.2366C146.886 62.3682 146.974 62.5875 146.974 62.8506C146.974 63.1577 146.842 63.4208 146.623 63.5963C146.403 63.7717 146.053 63.8594 145.658 63.8594Z" fill="white"/>
<path d="M154.298 63.8156V60.5699H155.088V61.9735L156.535 60.5699H157.5L156.053 61.9296L157.588 63.8156H156.623L155.526 62.4121L155.132 62.8068V63.8156H154.298Z" fill="white"/>
<path d="M164.693 63.8156V60.5699H165.482V63.8156H164.693Z" fill="white"/>
<path d="M173.026 63.8156V60.5699H173.772L175.439 62.5875V60.5699H176.228V63.8156H175.57L173.86 61.7542V63.8156H173.026Z" fill="white"/>
<path d="M185.351 63.8596C184.825 63.8596 184.386 63.6841 184.035 63.3771C183.684 63.0701 183.509 62.6754 183.509 62.1929C183.509 61.7104 183.684 61.3157 184.035 61.0087C184.386 60.7017 184.825 60.5262 185.351 60.5262C185.658 60.5262 185.921 60.5701 186.14 60.6578C186.36 60.7455 186.535 60.8771 186.754 61.0526L186.272 61.535C186.14 61.4034 185.965 61.3157 185.833 61.2719C185.702 61.228 185.526 61.1841 185.351 61.1841C185.044 61.1841 184.825 61.2719 184.605 61.4912C184.43 61.6666 184.298 61.9298 184.298 62.2368C184.298 62.5438 184.386 62.7631 184.605 62.9824C184.825 63.2017 185.044 63.2894 185.351 63.2894C185.526 63.2894 185.702 63.2455 185.833 63.2017C185.965 63.1578 186.14 63.0262 186.272 62.8947L186.754 63.3771C186.579 63.5525 186.36 63.6841 186.14 63.8157C185.965 63.8157 185.702 63.8596 185.351 63.8596Z" fill="white"/>
<path d="M193.772 63.8157L195.307 60.5262H196.053L197.588 63.8157H196.754L196.447 63.0701H194.956L194.649 63.8157H193.772ZM195.175 62.4561H196.14L195.658 61.4034L195.175 62.4561Z" fill="white"/>
<path d="M204.737 63.8156V60.5699H206.36C206.798 60.5699 207.149 60.7015 207.412 60.9208C207.632 61.0963 207.719 61.3594 207.719 61.6664C207.719 62.1489 207.456 62.4998 206.974 62.6752L207.851 63.8594H206.93L206.14 62.8068H205.526V63.8594H204.737V63.8156ZM205.526 62.1489H206.316C206.491 62.1489 206.667 62.1051 206.754 62.0173C206.842 61.9296 206.93 61.798 206.93 61.6664C206.93 61.5349 206.886 61.4033 206.754 61.3156C206.667 61.2278 206.491 61.184 206.316 61.184H205.526V62.1489Z" fill="white"/>
<path d="M215.088 63.8156V60.5699H217.763V61.2278H215.833V61.8857H217.5V62.5436H215.833V63.2454H217.763V63.9033H215.088V63.8156Z" fill="white"/>
</svg>
