<svg width="100" height="15" viewBox="0 0 100 15" fill="none" xmlns="http://www.w3.org/2000/svg">
<path d="M18.4386 1.8529C18.7193 1.58343 19.0526 1.38132 19.4386 1.28027C19.614 1.22974 19.807 1.2129 19.9825 1.19606C20.1754 1.19606 20.3684 1.19606 20.5614 1.19606L22.8772 1.33079C23.0526 1.34764 23.2281 1.34764 23.421 1.33079C23.5614 1.31395 23.7193 1.29711 23.8596 1.24658C23.9825 1.2129 24.0877 1.17922 24.193 1.11185C24.2807 1.06132 24.3509 1.01079 24.4211 0.943426L25.2105 0.185531L25.1228 0.118164L24.9474 0.269742C24.8947 0.320268 24.8246 0.370792 24.7368 0.387634C24.6491 0.421318 24.5439 0.438163 24.4561 0.438163C24.3509 0.455005 24.2281 0.455006 24.1053 0.455006C23.9825 0.455006 23.8596 0.455005 23.7193 0.438163L21.1228 0.269742C20.9123 0.2529 20.7017 0.2529 20.4912 0.269742C20.2982 0.286584 20.0877 0.320269 19.9123 0.370796" fill="#C39D6C"/>
<path d="M17.0526 10.6946C17.4386 10.3072 17.9298 10.0377 18.4561 9.90299C18.7017 9.83562 18.9649 9.80194 19.2281 9.80194C19.4912 9.7851 19.7719 9.80194 20.0351 9.81878L23.2982 10.0209C23.5438 10.0377 23.807 10.0377 24.0526 10.0209C24.2631 10.004 24.4737 9.97036 24.6667 9.91984C24.8245 9.86931 24.9824 9.81878 25.1403 9.73457C25.2631 9.6672 25.3684 9.59984 25.4737 9.49879L26.5789 8.43773L26.4561 8.35352L26.2105 8.57247C26.1228 8.63984 26.0351 8.70721 25.9123 8.74089C25.7895 8.77458 25.6491 8.80826 25.5088 8.8251C25.3509 8.84194 25.193 8.84194 25.0175 8.84194C24.8421 8.84194 24.6666 8.84194 24.4737 8.8251L20.807 8.58931C20.5088 8.57247 20.2105 8.57247 19.9298 8.58931C19.6491 8.60615 19.3684 8.65668 19.1052 8.74089" fill="#C39D6C"/>
<path d="M73.8421 12.1095C74.1053 12.1431 74.3684 12.16 74.6316 12.16C75.0526 12.16 75.4386 11.9916 75.7369 11.7052L77.3333 10.1895C76.9649 10.5431 76.5263 10.7958 76.0351 10.8968C75.807 10.9474 75.579 10.9642 75.3509 10.9642C75.1053 10.9642 74.8772 10.9473 74.6316 10.9137L71.614 10.6105C71.3509 10.5768 71.0877 10.56 70.8246 10.56C70.4035 10.56 70.0175 10.7284 69.7193 11.0147L68.1228 12.5305C68.4912 12.1768 68.9298 11.9242 69.4211 11.8231C69.6491 11.7726 69.8772 11.7558 70.1053 11.7558C70.3509 11.7558 70.579 11.7726 70.8246 11.8063L73.8421 12.1095Z" fill="#C39D6C"/>
<path d="M25.9298 13.5746C25.3684 13.6588 24.7895 13.7262 24.2281 13.7598C23.5965 13.7935 22.8947 13.8104 22.1403 13.8104H17.7193V9.14511V8.40406V4.5809H18.7544H22.2807C22.421 4.5809 22.5614 4.5809 22.7193 4.5809C22.8596 4.5809 23.0175 4.5809 23.1579 4.5809C23.5439 4.5809 23.9298 4.59774 24.3158 4.61458C24.7018 4.63142 25.0877 4.68195 25.4561 4.74932C25.8246 4.81669 26.193 4.91774 26.5438 5.05248C26.8947 5.18721 27.2281 5.38932 27.5263 5.60826V3.83984H16.0877C16.1228 4.34511 16.1403 4.9009 16.1754 5.49037C16.193 6.07985 16.2105 6.68616 16.2281 7.29248C16.2456 7.91563 16.2456 8.53879 16.2456 9.17879C16.2456 9.81879 16.2456 10.442 16.2281 11.0651C16.2105 11.6883 16.193 12.2946 16.1754 12.8672C16.1579 13.4567 16.1228 13.9956 16.0877 14.5177H21.3509C21.8421 14.5177 22.3158 14.5177 22.807 14.5177C23.2982 14.5177 23.7895 14.5177 24.2982 14.5177H27.6491L28.1403 12.7493C27.8596 12.9514 27.5439 13.1198 27.2105 13.2209C26.8246 13.3893 26.3684 13.5072 25.9298 13.5746Z" fill="#C39D6C"/>
<path d="M12.0526 6.45037C11.8772 6.063 11.6491 5.70932 11.386 5.38932C11.1228 5.06932 10.8246 4.79985 10.4737 4.56406C10.1228 4.32827 9.75438 4.15985 9.35087 4.04195C8.91228 3.92406 8.47368 3.85669 8.01754 3.85669H6.35088H0C0.0350877 4.27774 0.0526358 4.71564 0.0701797 5.18721C0.0877236 5.65879 0.105265 6.13037 0.122809 6.63564C0.140353 7.1409 0.140355 7.64617 0.157899 8.15143C0.157899 8.67354 0.157899 9.17879 0.157899 9.7009C0.157899 10.1388 0.157893 10.5598 0.140349 10.9977C0.140349 11.4356 0.122813 11.8398 0.10527 12.2609C0.0877257 12.6651 0.0701733 13.0693 0.0526294 13.4567C0.0350856 13.8441 0.0175439 14.2146 0 14.5514H8.03508C8.50877 14.5514 8.96492 14.4841 9.40351 14.3493C9.80702 14.2146 10.2105 14.0293 10.5614 13.7935C10.9123 13.5577 11.2105 13.2546 11.4737 12.9346C11.7368 12.5977 11.9649 12.2272 12.1403 11.8398C12.3158 11.4188 12.4561 10.9977 12.5439 10.5598C12.6316 10.0883 12.6667 9.61669 12.6667 9.14511C12.6667 8.67353 12.614 8.18511 12.5088 7.73038C12.3684 7.27564 12.2281 6.85458 12.0526 6.45037ZM11.0702 10.2904C11.0351 10.6609 10.9474 11.0146 10.8596 11.3851C10.7719 11.7219 10.6316 12.042 10.4737 12.3451C10.3158 12.6314 10.1228 12.8841 9.87719 13.1199C9.63157 13.3388 9.36842 13.5072 9.05264 13.6251C8.7193 13.7599 8.35087 13.8104 7.98245 13.8104H1.5965V4.59774H6.35088H7.98245C8.35087 4.59774 8.70176 4.64827 9.05264 4.78301C9.35088 4.9009 9.63157 5.06932 9.87719 5.27143C10.1228 5.49037 10.3158 5.74301 10.4737 6.01248C10.6316 6.31564 10.7719 6.61879 10.8596 6.95564C10.9649 7.30932 11.0351 7.663 11.0877 8.01669C11.1403 8.38721 11.1579 8.77458 11.1579 9.14511C11.1404 9.53248 11.1228 9.91984 11.0702 10.2904Z" fill="#C39D6C"/>
<path d="M92.9474 5.30511C92.5965 5.81037 92.2281 6.34932 91.8421 6.88826L87.6492 12.6651L83.8071 6.88826C83.4036 6.29879 83.0527 5.75985 82.7193 5.25458C82.386 4.74932 82.1053 4.27774 81.8422 3.85669H79.8948C80.193 4.22721 80.5088 4.63142 80.8421 5.05248C81.1579 5.47353 81.4913 5.91143 81.8246 6.34932C82.1579 6.80406 82.4913 7.25879 82.8246 7.71353C83.1579 8.18511 83.4913 8.63984 83.8071 9.11142L87.4035 14.5346L91.9299 8.23564C92.2106 7.84827 92.5088 7.44405 92.7895 7.05669C93.0877 6.66932 93.3684 6.28195 93.6491 5.91143C93.9298 5.5409 94.2106 5.18722 94.4913 4.83353C94.772 4.47985 95.0176 4.143 95.2807 3.83984H93.9298C93.6141 4.31142 93.2983 4.783 92.9474 5.30511Z" fill="#C39D6C"/>
<path d="M99.614 11.0651C99.5964 10.442 99.5964 9.8188 99.5964 9.1788C99.5964 8.5388 99.5964 7.91564 99.614 7.29248C99.6315 6.66932 99.6491 6.07985 99.6842 5.49038C99.7192 4.9009 99.7543 4.36195 99.8069 3.85669H98.035C98.0701 4.36195 98.0877 4.91774 98.1228 5.49038C98.1403 6.07985 98.1754 6.66932 98.1754 7.29248C98.1929 7.91564 98.1929 8.5388 98.2105 9.1788C98.2105 9.8188 98.2105 10.442 98.2105 11.0651C98.1929 11.6883 98.1754 12.2777 98.1579 12.8672C98.1403 13.4567 98.0877 13.9956 98.0526 14.5009H99.8245C99.7719 13.9956 99.7368 13.4399 99.7017 12.8672C99.6666 12.2946 99.6315 11.6883 99.614 11.0651Z" fill="#C39D6C"/>
<path d="M44.0877 14.3998C43.9825 14.3998 43.8597 14.3662 43.7544 14.3156C43.6316 14.2483 43.5263 14.1809 43.4035 14.0967C43.2807 13.9956 43.1579 13.8946 43.0526 13.7935C42.9298 13.6756 42.807 13.5409 42.6842 13.4062L40.2632 10.7451C40.0702 10.5262 39.8597 10.3241 39.6491 10.1388C39.4386 9.95353 39.2105 9.80195 38.9649 9.68406H39.6842C40.1228 9.68406 40.5789 9.63353 41 9.51564C41.3684 9.41458 41.7018 9.26301 42.0175 9.07775C42.2982 8.90933 42.5439 8.67353 42.7368 8.4209C42.9298 8.18511 43.0702 7.91564 43.1754 7.62932C43.2632 7.343 43.3158 7.05669 43.3158 6.77038C43.3158 6.16406 43.1053 5.59143 42.7193 5.11985C42.5088 4.86722 42.2632 4.64827 41.9825 4.46301C41.6667 4.2609 41.3333 4.10932 40.9649 4.02511C40.5439 3.90722 40.1053 3.85669 39.6667 3.85669H31.8772C31.9123 4.27774 31.9298 4.71564 31.9474 5.18721C31.9649 5.65879 31.9825 6.13037 32 6.63564C32.0176 7.1409 32.0176 7.64617 32.0351 8.15143C32.0526 8.65669 32.0351 9.17879 32.0351 9.7009C32.0351 10.1388 32.0351 10.5598 32.0175 10.9977C32 11.4356 32 11.8398 31.9825 12.2609C31.9649 12.6651 31.9474 13.0693 31.9298 13.4567C31.9123 13.8441 31.8947 14.2146 31.8772 14.5514H33.6316C33.614 14.1977 33.5965 13.8272 33.579 13.4398C33.5614 13.0525 33.5439 12.6483 33.5263 12.2441C33.5088 11.8398 33.5088 11.4188 33.4912 10.9809C33.4912 10.543 33.4737 10.122 33.4737 9.68406H36C36.5614 9.68406 37.1053 9.8188 37.579 10.0883C37.807 10.223 38.0175 10.3577 38.193 10.5262C38.386 10.6946 38.579 10.8967 38.7544 11.082L40.9123 13.4398C41.0702 13.6251 41.2632 13.7935 41.4561 13.9451C41.614 14.0798 41.7895 14.1809 41.9649 14.2819C42.1053 14.3662 42.2632 14.4335 42.4386 14.4672C42.5614 14.5009 42.7018 14.5177 42.8421 14.5177H44.4035L44.3684 14.3662L44.0877 14.3998ZM33.4912 8.943V4.5809H39.6316C39.8947 4.5809 40.1754 4.61458 40.4386 4.69879C40.6667 4.76616 40.8772 4.88406 41.0526 5.03564C41.2281 5.17037 41.386 5.33879 41.4912 5.52406C41.614 5.70932 41.7018 5.91142 41.7544 6.11353C41.807 6.33248 41.8421 6.53459 41.8421 6.75353C41.8421 6.97248 41.807 7.19143 41.7544 7.39353C41.7018 7.59564 41.5965 7.79775 41.4912 7.98301C41.3684 8.16827 41.2281 8.33669 41.0526 8.47142C40.8596 8.623 40.6667 8.72406 40.4386 8.80827C40.1754 8.89248 39.9123 8.92616 39.6491 8.92616H33.4912V8.943Z" fill="#C39D6C"/>
<path d="M62.4736 5.49037C62.5087 4.9009 62.5438 4.36195 62.5964 3.83984H61.6666C61.3684 4.21037 61.0701 4.61458 60.7368 5.03563C60.4035 5.45669 60.0701 5.87774 59.7017 6.33248C59.3508 6.77037 58.9824 7.22511 58.5964 7.69669C58.2105 8.16827 57.8245 8.623 57.4385 9.09458C57.0526 9.56616 56.6666 10.0209 56.2631 10.4925C55.8771 10.9641 55.4736 11.4188 55.0877 11.8567C54.7017 11.402 54.2982 10.9472 53.9122 10.4925C53.5087 10.0209 53.1228 9.56616 52.7368 9.09458C52.3508 8.623 51.9649 8.16827 51.5964 7.69669C51.228 7.22511 50.8596 6.78722 50.5087 6.33248C50.1578 5.89458 49.8245 5.45669 49.4912 5.03563C49.1754 4.61458 48.8771 4.22721 48.5964 3.83984H47.5964C47.6315 4.34511 47.6491 4.9009 47.6842 5.49037C47.7017 6.07985 47.7193 6.68616 47.7368 7.29248C47.7543 7.91563 47.7543 8.53879 47.7543 9.17879C47.7543 9.81879 47.7543 10.442 47.7368 11.0651C47.7193 11.6883 47.7017 12.2946 47.6842 12.8672C47.6666 13.4567 47.6315 13.9956 47.5964 14.5177H48.9473C48.9122 14.1135 48.8947 13.6756 48.8771 13.2041C48.8596 12.7325 48.842 12.2609 48.8245 11.7725C48.807 11.2841 48.807 10.7788 48.7894 10.2735C48.7894 9.76827 48.7894 9.24617 48.7894 8.7409V6.60195C49.807 7.76406 50.807 8.943 51.7894 10.1219C52.7719 11.3009 53.7368 12.5135 54.6842 13.7262L55.6666 12.4798C56.0701 11.9746 56.4736 11.4693 56.9122 10.9472C57.3508 10.4251 57.7894 9.88616 58.228 9.34721C58.6666 8.80827 59.1228 8.26932 59.5789 7.74721C60.035 7.20827 60.4736 6.703 60.9122 6.19774V8.99353C60.9122 9.48196 60.9122 9.97037 60.9122 10.4588C60.9122 10.9472 60.8947 11.4356 60.8771 11.8904C60.8596 12.3619 60.8421 12.8167 60.8245 13.2546C60.807 13.6925 60.7719 14.1135 60.7368 14.5009H62.5789C62.5263 13.9956 62.4912 13.4398 62.4561 12.8504C62.421 12.2609 62.4035 11.6546 62.3859 11.0483C62.3684 10.4419 62.3684 9.80196 62.3684 9.16196C62.3684 8.52196 62.3684 7.8988 62.3859 7.27564C62.4035 6.65248 62.4385 6.07985 62.4736 5.49037Z" fill="#C39D6C"/>
<path d="M78.9649 11.9408C78.6315 11.4692 78.2982 10.9977 77.9649 10.5092C77.6315 10.0208 77.2982 9.53238 76.9824 9.06081L73.3859 3.4187L68.8596 9.97028C68.5614 10.3745 68.2807 10.7787 68 11.1829C67.7193 11.5871 67.421 11.9745 67.1403 12.3619C66.8596 12.7492 66.5789 13.1198 66.2982 13.4903C66.0175 13.8608 65.7719 14.1976 65.5087 14.5345H66.8596C67.1579 14.0629 67.4737 13.5577 67.8245 13.0355C68.1754 12.5134 68.5438 11.9576 68.9298 11.385L69.4035 10.6945L73.1228 5.38923L76.4912 10.6945L76.9473 11.385C77.3508 11.9913 77.7017 12.564 78.035 13.0861C78.3684 13.625 78.6491 14.0966 78.9122 14.5345H80.8596C80.5614 14.1471 80.2456 13.7261 79.9122 13.2882C79.614 12.8671 79.2982 12.4124 78.9649 11.9408Z" fill="#C39D6C"/>
</svg>
